<svg width="540" height="541" viewBox="0 0 540 541" fill="none" xmlns="http://www.w3.org/2000/svg">
<path d="M485.892 430.869H450.122V431.139H485.892V430.869Z" fill="#EBEBEB"/>
<path d="M357.718 433.808H348.332V434.078H357.718V433.808Z" fill="#EBEBEB"/>
<path d="M449.042 420.848H428.317V421.118H449.042V420.848Z" fill="#EBEBEB"/>
<path d="M103.302 422.661H56.6568V422.931H103.302V422.661Z" fill="#EBEBEB"/>
<path d="M119.761 422.661H112.925V422.931H119.761V422.661Z" fill="#EBEBEB"/>
<path d="M243.162 427.219H141.988V427.489H243.162V427.219Z" fill="#EBEBEB"/>
<path d="M255.96 365.324H47.4336C45.7981 365.324 44.2295 364.675 43.073 363.518C41.9165 362.362 41.2668 360.793 41.2668 359.158V66.0132C41.281 64.387 41.937 62.8323 43.092 61.6875C44.247 60.5426 45.8074 59.9003 47.4336 59.9004H255.96C257.596 59.9004 259.164 60.5501 260.321 61.7066C261.477 62.8631 262.127 64.4317 262.127 66.0672V359.158C262.127 360.793 261.477 362.362 260.321 363.518C259.164 364.675 257.596 365.324 255.96 365.324ZM47.4336 60.1164C45.8705 60.1192 44.3723 60.7414 43.2671 61.8467C42.1618 62.9519 41.5397 64.4501 41.5368 66.0132V359.158C41.5397 360.721 42.1618 362.219 43.2671 363.324C44.3723 364.429 45.8705 365.052 47.4336 365.054H255.96C257.523 365.052 259.021 364.429 260.127 363.324C261.232 362.219 261.854 360.721 261.857 359.158V66.0132C261.854 64.4501 261.232 62.9519 260.127 61.8467C259.021 60.7414 257.523 60.1192 255.96 60.1164H47.4336Z" fill="#EBEBEB"/>
<path d="M489.575 365.324H281.027C279.392 365.322 277.825 364.671 276.669 363.515C275.513 362.359 274.863 360.792 274.86 359.158V66.0132C274.877 64.3879 275.534 62.8348 276.688 61.6906C277.843 60.5463 279.401 59.9031 281.027 59.9004H489.575C491.197 59.906 492.752 60.5508 493.902 61.6951C495.053 62.8393 495.706 64.3908 495.72 66.0132V359.158C495.72 360.789 495.073 362.355 493.921 363.511C492.77 364.666 491.207 365.319 489.575 365.324ZM281.027 60.1164C279.464 60.1192 277.966 60.7414 276.86 61.8467C275.755 62.9519 275.133 64.4501 275.13 66.0132V359.158C275.133 360.721 275.755 362.219 276.86 363.324C277.966 364.429 279.464 365.052 281.027 365.054H489.575C491.138 365.052 492.636 364.429 493.741 363.324C494.847 362.219 495.469 360.721 495.472 359.158V66.0132C495.469 64.4501 494.847 62.9519 493.741 61.8467C492.636 60.7414 491.138 60.1192 489.575 60.1164H281.027Z" fill="#EBEBEB"/>
<path d="M540 413.492H0V413.762H540V413.492Z" fill="#EBEBEB"/>
<path d="M280.282 297.501C280.282 298.423 280.008 299.325 279.495 300.093C278.983 300.86 278.254 301.458 277.401 301.811C276.549 302.164 275.611 302.257 274.706 302.077C273.801 301.897 272.969 301.452 272.317 300.8C271.664 300.147 271.22 299.316 271.04 298.411C270.86 297.506 270.952 296.568 271.306 295.715C271.659 294.863 272.257 294.134 273.024 293.621C273.791 293.109 274.693 292.835 275.616 292.835C276.853 292.835 278.04 293.327 278.915 294.202C279.79 295.076 280.282 296.263 280.282 297.501Z" stroke="#263238" stroke-width="3" stroke-miterlimit="10"/>
<path d="M278.834 300.881L286.276 308.333" stroke="#263238" stroke-width="3" stroke-miterlimit="10"/>
<path d="M481.275 118.107C484.14 100.456 472.154 83.8243 454.503 80.9591C436.852 78.0939 420.22 90.0803 417.355 107.731C414.49 125.382 426.476 142.014 444.127 144.879C461.778 147.744 478.41 135.758 481.275 118.107Z" fill="#E0E0E0"/>
<path d="M449.388 146.009C440.711 145.852 432.442 142.295 426.361 136.103C420.28 129.911 416.873 121.58 416.873 112.901C416.873 104.223 420.28 95.8912 426.361 89.6994C432.442 83.5077 440.711 79.9507 449.388 79.7939V81.2519C441.095 81.4051 433.194 84.807 427.384 90.7257C421.573 96.6444 418.318 104.607 418.318 112.901C418.318 121.195 421.573 129.158 427.384 135.077C433.194 140.996 441.095 144.398 449.388 144.551V146.009Z" fill="white"/>
<path d="M449.388 146.009V144.551C453.593 144.629 457.772 143.868 461.68 142.312C465.588 140.756 469.147 138.438 472.148 135.491C475.15 132.544 477.534 129.029 479.162 125.151C480.789 121.272 481.627 117.108 481.627 112.902C481.627 108.696 480.789 104.532 479.162 100.653C477.534 96.7747 475.15 93.2594 472.148 90.3128C469.147 87.3662 465.588 85.0473 461.68 83.4916C457.772 81.936 453.593 81.1748 449.388 81.2525V79.7945C453.786 79.715 458.156 80.5127 462.242 82.1408C466.329 83.7689 470.05 86.1949 473.188 89.2771C476.326 92.3593 478.819 96.0359 480.521 100.092C482.222 104.148 483.099 108.503 483.099 112.902C483.099 117.301 482.222 121.655 480.521 125.712C478.819 129.768 476.326 133.444 473.188 136.527C470.05 139.609 466.329 142.035 462.242 143.663C458.156 145.291 453.786 146.089 449.388 146.009Z" fill="white"/>
<path d="M466.312 112.907H464.854C464.854 102.183 459.454 87.8187 448.999 81.1443L449.788 79.9131C460.631 86.9007 466.312 101.783 466.312 112.907Z" fill="white"/>
<path d="M449.788 144.918L448.999 143.687C459.41 137.012 464.854 122.648 464.854 111.924H466.312C466.312 123.048 460.631 137.952 449.788 144.918Z" fill="white"/>
<path d="M433.933 112.907H432.475C432.475 101.772 438.145 86.8683 448.999 79.9131L449.788 81.1335C439.376 87.8187 433.933 102.172 433.933 112.907Z" fill="white"/>
<path d="M448.999 144.907C438.145 137.941 432.475 123.037 432.475 111.913H433.933C433.933 122.648 439.333 137.001 449.788 143.676L448.999 144.907Z" fill="white"/>
<path d="M450.122 80.5176H448.664V145.274H450.122V80.5176Z" fill="white"/>
<path d="M476.809 94.9248H421.988V96.3828H476.809V94.9248Z" fill="white"/>
<path d="M481.766 112.724H417.031V114.182H481.766V112.724Z" fill="white"/>
<path d="M476.075 130.511H422.712V131.969H476.075V130.511Z" fill="white"/>
<path d="M103.237 100.94C103.249 98.7446 102.929 96.5599 102.287 94.4601L107.935 89.503L104.382 83.3469L97.2648 85.8201C94.2755 82.6067 90.4007 80.3517 86.13 79.3401L84.6504 71.9854H77.5548L76.086 79.3401C71.8122 80.3515 67.9338 82.6064 64.9404 85.8201L57.8232 83.4117L54.2808 89.5678L59.9184 94.5249C58.6513 98.7189 58.6513 103.194 59.9184 107.388L54.2808 112.334L57.8232 118.49L64.9404 116.06C67.9338 119.274 71.8122 121.529 76.086 122.54L77.5548 129.906H84.6504L86.13 122.54C90.4007 121.529 94.2755 119.274 97.2648 116.06L104.382 118.469L107.935 112.313L102.287 107.42C102.927 105.32 103.247 103.136 103.237 100.94ZM81.108 112.907C78.8305 112.909 76.6036 112.235 74.7089 110.972C72.8142 109.708 71.3369 107.91 70.4639 105.807C69.5908 103.703 69.3613 101.388 69.8043 99.1543C70.2473 96.9204 71.3429 94.868 72.9526 93.2568C74.5623 91.6456 76.6136 90.5481 78.8472 90.103C81.0807 89.6579 83.3961 89.8852 85.5005 90.7563C87.6048 91.6273 89.4035 93.103 90.669 94.9965C91.9345 96.89 92.61 99.1163 92.61 101.394C92.6114 102.905 92.315 104.402 91.7376 105.799C91.1602 107.195 90.3132 108.465 89.245 109.534C88.1768 110.603 86.9083 111.451 85.5121 112.03C84.1159 112.609 82.6194 112.907 81.108 112.907Z" fill="#E0E0E0"/>
<path d="M133.693 131.548C133.691 129.89 133.448 128.242 132.97 126.655L137.29 122.875L134.59 118.199L129.19 120.035C126.912 117.596 123.961 115.889 120.712 115.132L119.632 109.526H114.232L113.152 115.132C109.899 115.889 106.944 117.596 104.663 120.035L99.2628 118.199L96.552 122.875L100.872 126.655C99.907 129.849 99.907 133.257 100.872 136.451L96.552 140.22L99.2628 144.907L104.663 143.071C106.944 145.51 109.899 147.217 113.152 147.974L114.232 153.58H119.632L120.712 147.974C123.961 147.217 126.912 145.51 129.19 143.071L134.59 144.907L137.29 140.22L132.97 136.451C133.448 134.86 133.691 133.208 133.693 131.548ZM116.834 140.652C115.099 140.654 113.402 140.141 111.958 139.179C110.514 138.216 109.389 136.846 108.724 135.243C108.059 133.64 107.884 131.876 108.222 130.174C108.56 128.472 109.395 126.908 110.623 125.681C111.85 124.454 113.413 123.619 115.115 123.281C116.818 122.943 118.582 123.117 120.185 123.782C121.787 124.447 123.157 125.573 124.12 127.017C125.083 128.461 125.595 130.158 125.593 131.893C125.593 134.216 124.67 136.444 123.028 138.087C121.385 139.729 119.157 140.652 116.834 140.652Z" fill="#E0E0E0"/>
<path d="M214.499 103.705L217.361 97.8838L220.234 103.694L226.649 104.623L222.005 109.148L223.106 115.531L217.372 112.518L211.648 115.542L212.738 109.159L208.094 104.634L214.499 103.705Z" fill="#EBEBEB"/>
<path d="M240.602 103.705L243.464 97.8838L246.337 103.694L252.742 104.623L248.108 109.148L249.21 115.531L243.475 112.518L237.74 115.542L238.831 109.159L234.187 104.634L240.602 103.705Z" fill="#EBEBEB"/>
<path d="M266.695 103.705L269.557 97.8838L272.43 103.694L278.845 104.623L274.212 109.148L275.314 115.531L269.579 112.518L263.844 115.542L264.935 109.159L260.291 104.634L266.695 103.705Z" fill="#EBEBEB"/>
<path d="M292.799 103.705L295.661 97.8838L298.534 103.694L304.949 104.623L300.305 109.148L301.406 115.531L295.672 112.518L289.948 115.542L291.038 109.159L286.394 104.634L292.799 103.705Z" fill="#EBEBEB"/>
<path d="M318.902 103.705L321.764 97.8838L324.637 103.694L331.042 104.623L326.408 109.148L327.51 115.531L321.775 112.518L316.04 115.542L317.131 109.159L312.487 104.634L318.902 103.705Z" fill="#EBEBEB"/>
<path d="M264.794 458.106C380.443 458.106 474.196 452.633 474.196 445.881C474.196 439.129 380.443 433.655 264.794 433.655C149.145 433.655 55.3932 439.129 55.3932 445.881C55.3932 452.633 149.145 458.106 264.794 458.106Z" fill="#F5F5F5"/>
<path d="M194.033 435.125L193.817 437.609C193.794 437.915 193.827 438.222 193.914 438.516C193.954 438.653 194.012 438.784 194.087 438.905C194.166 439.025 194.253 439.14 194.346 439.25C194.441 439.361 194.55 439.459 194.67 439.542C195.036 439.802 195.474 439.942 195.923 439.942H284.915C285.127 439.942 285.339 439.909 285.541 439.844C285.682 439.802 285.819 439.747 285.952 439.682C286.422 439.452 286.802 439.072 287.032 438.602C287.169 438.341 287.253 438.054 287.28 437.76L287.485 435.373C287.519 435.089 287.486 434.8 287.388 434.531C287.347 434.406 287.293 434.287 287.226 434.174C287.058 433.892 286.82 433.657 286.535 433.494C286.413 433.428 286.287 433.37 286.157 433.321C285.958 433.257 285.75 433.224 285.541 433.224H263.38C263.101 433.227 262.822 433.202 262.548 433.148L262.235 433.062C262.116 433.028 262.001 432.985 261.889 432.932C261.781 432.898 261.679 432.847 261.587 432.781C261.431 432.7 261.283 432.606 261.144 432.5C260.976 432.367 260.821 432.219 260.68 432.058C260.604 431.96 260.528 431.874 260.453 431.766L260.302 431.55L260.248 431.464C260.183 431.365 260.129 431.26 260.086 431.15L259.956 430.859C259.961 430.837 259.961 430.815 259.956 430.794C259.962 430.769 259.962 430.743 259.956 430.718C259.924 430.635 259.903 430.548 259.891 430.459C259.88 430.337 259.88 430.214 259.891 430.092C259.891 429.984 259.891 429.865 259.891 429.746C259.891 429.628 259.891 429.52 259.891 429.401V429.26C259.885 429.145 259.885 429.03 259.891 428.915C259.891 428.785 259.945 428.677 259.967 428.558L268.672 395.165L270.346 388.75L271.652 383.728H221.108L218.398 388.75L214.942 395.165L195.286 431.604C195.221 431.734 195.156 431.863 195.08 431.993L194.886 432.436C194.832 432.587 194.767 432.727 194.713 432.889L194.616 433.192C194.351 433.812 194.155 434.461 194.033 435.125Z" fill="#263238"/>
<path opacity="0.2" d="M287.453 435.395L287.248 437.803C287.192 438.387 286.923 438.93 286.493 439.328C286.063 439.727 285.501 439.953 284.915 439.963H195.944C195.646 439.964 195.35 439.903 195.076 439.784C194.802 439.665 194.556 439.49 194.353 439.271C194.15 439.052 193.994 438.793 193.896 438.51C193.799 438.228 193.76 437.928 193.784 437.63L194 435.146C194.057 434.482 194.187 433.827 194.389 433.192C194.572 432.636 194.804 432.098 195.08 431.582L220.914 383.706H271.458L259.772 428.537C259.695 428.793 259.648 429.058 259.632 429.325C259.558 430.211 259.81 431.092 260.341 431.805C260.873 432.517 261.646 433.01 262.516 433.192C262.788 433.255 263.067 433.284 263.347 433.278H285.476C285.75 433.271 286.022 433.322 286.275 433.427C286.527 433.533 286.755 433.691 286.941 433.891C287.128 434.091 287.271 434.329 287.359 434.588C287.447 434.847 287.479 435.122 287.453 435.395Z" fill="white"/>
<path d="M192.24 431.561L218.063 383.674H220.925L195.091 431.561C194.492 432.663 194.125 433.876 194.011 435.125L193.795 437.609C193.762 437.908 193.794 438.211 193.889 438.496C193.984 438.782 194.139 439.044 194.344 439.264C194.549 439.485 194.799 439.658 195.077 439.773C195.355 439.888 195.655 439.942 195.955 439.931H193.093C192.793 439.942 192.493 439.888 192.215 439.773C191.937 439.658 191.687 439.485 191.482 439.264C191.277 439.044 191.122 438.782 191.027 438.496C190.932 438.211 190.9 437.908 190.933 437.609L191.149 435.125C191.262 433.874 191.633 432.66 192.24 431.561Z" fill="#263238"/>
<path opacity="0.3" d="M220.946 383.674H271.48L268.499 395.122H214.769L220.946 383.674Z" fill="black"/>
<path d="M135.194 225.011V380.823C135.193 381.857 135.396 382.882 135.791 383.839C136.186 384.795 136.765 385.664 137.497 386.397C138.228 387.129 139.096 387.71 140.052 388.106C141.008 388.503 142.033 388.707 143.068 388.707H358.711C359.746 388.707 360.771 388.503 361.727 388.106C362.683 387.71 363.551 387.129 364.282 386.397C365.013 385.664 365.593 384.795 365.988 383.839C366.383 382.882 366.586 381.857 366.584 380.823V225.011C366.586 223.975 366.383 222.949 365.987 221.992C365.591 221.035 365.011 220.165 364.278 219.433C363.546 218.701 362.676 218.12 361.719 217.724C360.762 217.328 359.736 217.126 358.7 217.127H143.089C141.355 217.128 139.67 217.702 138.294 218.758C138.101 218.901 137.917 219.056 137.743 219.222C137.212 219.704 136.753 220.261 136.382 220.875C136.122 221.279 135.905 221.71 135.734 222.16C135.383 223.07 135.2 224.036 135.194 225.011Z" fill="#263238"/>
<path d="M366.584 363.975V380.823C366.584 382.914 365.754 384.919 364.275 386.397C362.797 387.876 360.791 388.707 358.7 388.707H143.089C140.998 388.707 138.993 387.876 137.514 386.397C136.036 384.919 135.205 382.914 135.205 380.823V363.975H366.584Z" fill="#407BFF"/>
<path opacity="0.6" d="M366.584 363.975V380.823C366.584 382.914 365.754 384.919 364.275 386.397C362.797 387.876 360.791 388.707 358.7 388.707H143.089C140.998 388.707 138.993 387.876 137.514 386.397C136.036 384.919 135.205 382.914 135.205 380.823V363.975H366.584Z" fill="white"/>
<path d="M143.23 359.212H358.56C359.706 359.212 360.805 358.756 361.615 357.946C362.425 357.136 362.88 356.037 362.88 354.892V226.22C362.88 225.075 362.425 223.976 361.615 223.166C360.805 222.356 359.706 221.9 358.56 221.9H143.23C142.084 221.9 140.985 222.356 140.175 223.166C139.365 223.976 138.91 225.075 138.91 226.22V354.935C138.921 356.073 139.381 357.161 140.19 357.962C140.999 358.762 142.091 359.212 143.23 359.212Z" fill="#407BFF"/>
<path d="M138.316 217.127H143.089C140.998 217.127 138.993 217.958 137.514 219.436C136.036 220.915 135.205 222.92 135.205 225.011V380.823C135.205 382.913 136.036 384.919 137.514 386.397C138.993 387.876 140.998 388.707 143.089 388.707H138.316C136.225 388.707 134.219 387.876 132.741 386.397C131.262 384.919 130.432 382.913 130.432 380.823V225.011C130.432 222.92 131.262 220.915 132.741 219.436C134.219 217.958 136.225 217.127 138.316 217.127Z" fill="#263238"/>
<g opacity="0.2">
<path d="M138.316 217.127H143.089C140.998 217.127 138.993 217.958 137.514 219.436C136.036 220.915 135.205 222.92 135.205 225.011V380.823C135.205 382.913 136.036 384.919 137.514 386.397C138.993 387.876 140.998 388.707 143.089 388.707H138.316C136.225 388.707 134.219 387.876 132.741 386.397C131.262 384.919 130.432 382.913 130.432 380.823V225.011C130.432 222.92 131.262 220.915 132.741 219.436C134.219 217.958 136.225 217.127 138.316 217.127Z" fill="white"/>
</g>
<path opacity="0.5" d="M364.154 303.894C358.603 302.814 349.812 306.41 348.17 311.81C348.355 310.161 348.061 308.494 347.324 307.008C346.587 305.522 345.437 304.28 344.012 303.429C341.15 301.777 337.403 300.61 334.768 302.598C336.017 297.29 335.763 291.74 334.035 286.568C332.307 281.397 329.172 276.809 324.983 273.319C316.537 266.482 304.214 265.759 294.462 270.522C295.871 267.814 296.671 264.83 296.805 261.78C296.938 258.73 296.403 255.688 295.236 252.867C294.068 250.046 292.298 247.514 290.049 245.45C287.799 243.386 285.125 241.84 282.215 240.919C268.65 236.195 254.144 234.82 239.933 236.912C231.714 238.122 223.333 240.692 217.361 246.459C211.388 252.226 209.801 262.659 213.818 269.928C209.183 268.43 204.225 268.231 199.484 269.353C194.743 270.474 190.4 272.873 186.926 276.289C183.577 279.787 181.258 284.141 180.223 288.872C179.189 293.604 179.479 298.528 181.062 303.105C179.788 302.349 178.345 301.923 176.864 301.866C175.383 301.81 173.912 302.124 172.584 302.781C171.276 303.445 170.158 304.431 169.336 305.645C168.514 306.86 168.015 308.265 167.886 309.726C166.159 307.446 163.91 305.615 161.328 304.387C158.746 303.158 155.906 302.567 153.048 302.665C150.191 302.762 147.398 303.544 144.905 304.946C142.413 306.348 140.294 308.328 138.726 310.719V359.211H362.88L364.154 303.894Z" fill="white"/>
<path d="M314.204 282.607H198.731C192.856 282.607 188.093 287.37 188.093 293.245C188.093 299.121 192.856 303.883 198.731 303.883H314.204C320.08 303.883 324.842 299.121 324.842 293.245C324.842 287.37 320.08 282.607 314.204 282.607Z" fill="white"/>
<path d="M202.738 291.02C202.738 291.943 202.464 292.845 201.951 293.612C201.439 294.379 200.71 294.977 199.857 295.331C199.005 295.684 198.067 295.776 197.162 295.596C196.257 295.416 195.425 294.972 194.773 294.319C194.12 293.667 193.676 292.835 193.496 291.93C193.316 291.025 193.408 290.087 193.762 289.235C194.115 288.382 194.713 287.653 195.48 287.141C196.247 286.628 197.149 286.354 198.072 286.354C199.309 286.354 200.496 286.846 201.371 287.721C202.246 288.596 202.738 289.783 202.738 291.02Z" stroke="#263238" stroke-width="3" stroke-miterlimit="10"/>
<path d="M201.29 294.4L208.732 301.852" stroke="#263238" stroke-width="3" stroke-miterlimit="10"/>
<g opacity="0.1">
<path d="M289.948 221.89H298.22L315.403 359.212H307.12L289.948 221.89Z" fill="white"/>
<path d="M323.773 359.212L306.601 221.89H337.716L354.888 359.212H323.773Z" fill="white"/>
</g>
<path opacity="0.2" d="M209.38 435.417L209.185 437.695C209.153 437.981 209.182 438.27 209.27 438.543C209.358 438.817 209.504 439.068 209.697 439.281C209.89 439.493 210.127 439.662 210.39 439.776C210.654 439.89 210.939 439.947 211.226 439.942H284.915C285.501 439.931 286.063 439.705 286.493 439.307C286.923 438.908 287.192 438.365 287.248 437.782L287.453 435.395C287.487 435.12 287.462 434.842 287.378 434.578C287.295 434.314 287.156 434.072 286.971 433.867C286.785 433.662 286.557 433.499 286.303 433.39C286.049 433.281 285.774 433.228 285.498 433.235H263.369C263.092 433.236 262.817 433.203 262.548 433.138H211.788C211.178 433.159 210.596 433.402 210.153 433.822C209.71 434.241 209.434 434.808 209.38 435.417Z" fill="white"/>
<path opacity="0.2" d="M194.4 433.17H262.548C261.677 432.993 260.902 432.5 260.372 431.787C259.841 431.073 259.593 430.189 259.675 429.304H196.56L194.4 433.17Z" fill="black"/>
<path d="M229.252 269.841L230.742 266.526C232.587 267.802 234.773 268.494 237.017 268.513C239.62 268.513 240.678 267.638 240.678 266.472C240.678 262.918 229.63 265.392 229.63 258.307C229.63 255.067 232.232 252.388 237.632 252.388C239.944 252.341 242.225 252.923 244.231 254.073L242.87 257.41C241.273 256.465 239.456 255.951 237.6 255.92C234.997 255.92 233.993 256.892 233.993 258.08C233.993 261.579 245.041 259.16 245.041 266.137C245.041 269.312 242.406 272.034 236.974 272.034C234.237 272.102 231.544 271.338 229.252 269.841Z" fill="#263238"/>
<path d="M262.775 268.189V271.71H248.065V252.713H262.44V256.244H252.45V260.37H261.274V263.794H252.45V268.189H262.775Z" fill="#263238"/>
<path d="M265.032 262.217C265.032 256.568 269.428 252.389 275.422 252.389C281.416 252.389 285.822 256.547 285.822 262.217C285.822 267.887 281.394 272.045 275.422 272.045C269.449 272.045 265.032 267.865 265.032 262.217ZM281.372 262.217C281.338 261.049 280.961 259.916 280.288 258.961C279.615 258.006 278.675 257.27 277.587 256.846C276.498 256.421 275.308 256.326 274.166 256.573C273.024 256.82 271.98 257.398 271.164 258.235C270.348 259.071 269.797 260.129 269.578 261.277C269.36 262.425 269.484 263.612 269.936 264.69C270.388 265.768 271.147 266.689 272.118 267.338C273.09 267.987 274.231 268.336 275.4 268.34C276.204 268.366 277.005 268.223 277.751 267.922C278.497 267.622 279.172 267.169 279.734 266.593C280.296 266.017 280.731 265.33 281.013 264.577C281.295 263.824 281.418 263.02 281.372 262.217Z" fill="#263238"/>
<path opacity="0.8" d="M250.798 317.848H205.222C202.925 317.848 201.064 319.709 201.064 322.006V331.639C201.064 333.936 202.925 335.797 205.222 335.797H250.798C253.094 335.797 254.956 333.936 254.956 331.639V322.006C254.956 319.709 253.094 317.848 250.798 317.848Z" fill="white"/>
<path opacity="0.8" d="M316.894 317.848H271.318C269.021 317.848 267.16 319.709 267.16 322.006V331.639C267.16 333.936 269.021 335.797 271.318 335.797H316.894C319.19 335.797 321.052 333.936 321.052 331.639V322.006C321.052 319.709 319.19 317.848 316.894 317.848Z" fill="white"/>
<path d="M226.714 228.013L253.487 180.493C253.581 180.327 253.718 180.188 253.883 180.092C254.048 179.996 254.235 179.945 254.426 179.945C254.617 179.945 254.805 179.996 254.97 180.092C255.135 180.188 255.272 180.327 255.366 180.493L282.139 228.013C282.229 228.177 282.275 228.361 282.272 228.548C282.269 228.735 282.217 228.917 282.123 229.079C282.028 229.24 281.893 229.373 281.731 229.467C281.57 229.56 281.386 229.61 281.2 229.611H227.664C227.476 229.612 227.292 229.563 227.128 229.471C226.965 229.378 226.829 229.245 226.733 229.083C226.637 228.922 226.585 228.738 226.581 228.551C226.578 228.363 226.623 228.178 226.714 228.013Z" fill="#407BFF"/>
<path opacity="0.3" d="M226.714 228.013L253.487 180.493C253.581 180.327 253.718 180.188 253.883 180.092C254.048 179.996 254.235 179.945 254.426 179.945C254.617 179.945 254.805 179.996 254.97 180.092C255.135 180.188 255.272 180.327 255.366 180.493L282.139 228.013C282.229 228.177 282.275 228.361 282.272 228.548C282.269 228.735 282.217 228.917 282.123 229.079C282.028 229.24 281.893 229.373 281.731 229.467C281.57 229.56 281.386 229.61 281.2 229.611H227.664C227.476 229.612 227.292 229.563 227.128 229.471C226.965 229.378 226.829 229.245 226.733 229.083C226.637 228.922 226.585 228.738 226.581 228.551C226.578 228.363 226.623 228.178 226.714 228.013Z" fill="black"/>
<path d="M241.704 236.729L240.397 231.394H235.71L234.414 236.729C236.748 237.695 239.37 237.695 241.704 236.729Z" fill="#263238"/>
<path opacity="0.2" d="M235.71 231.394L235.408 232.636C237.135 233.143 238.972 233.143 240.7 232.636L240.397 231.394H235.71Z" fill="white"/>
<path opacity="0.4" d="M235.084 233.975C234.997 234.32 234.911 234.655 234.835 234.979C236.944 235.642 239.206 235.642 241.315 234.979L241.078 233.975C239.1 234.375 237.062 234.375 235.084 233.975Z" fill="white"/>
<path d="M243 231.015C239.832 232.323 236.275 232.323 233.107 231.015V191.379C233.104 189.161 233.539 186.963 234.388 184.913C235.237 182.863 236.483 181.001 238.054 179.435C239.624 181.001 240.87 182.863 241.719 184.913C242.568 186.963 243.003 189.161 243 191.379V231.015Z" fill="#407BFF"/>
<path d="M233.107 191.379V228.737C236.31 229.854 239.797 229.854 243 228.737V191.379C243.003 189.161 242.568 186.963 241.719 184.913C240.87 182.863 239.624 181.001 238.054 179.435C236.483 181.001 235.237 182.863 234.388 184.913C233.539 186.963 233.104 189.161 233.107 191.379Z" fill="#407BFF"/>
<path opacity="0.4" d="M233.107 191.379V228.737C236.31 229.854 239.797 229.854 243 228.737V191.379C243.003 189.161 242.568 186.963 241.719 184.913C240.87 182.863 239.624 181.001 238.054 179.435C236.483 181.001 235.237 182.863 234.388 184.913C233.539 186.963 233.104 189.161 233.107 191.379Z" fill="white"/>
<path d="M233.107 191.379V219.459C236.34 220.383 239.767 220.383 243 219.459V191.379C243.003 189.161 242.568 186.963 241.719 184.913C240.87 182.863 239.624 181.001 238.054 179.435C236.483 181.001 235.237 182.863 234.388 184.913C233.539 186.963 233.104 189.161 233.107 191.379Z" fill="#407BFF"/>
<path opacity="0.6" d="M233.107 191.379V219.459C236.34 220.383 239.767 220.383 243 219.459V191.379C243.003 189.161 242.568 186.963 241.719 184.913C240.87 182.863 239.624 181.001 238.054 179.435C236.483 181.001 235.237 182.863 234.388 184.913C233.539 186.963 233.104 189.161 233.107 191.379Z" fill="white"/>
<path d="M233.107 191.379V206.067C236.339 206.996 239.768 206.996 243 206.067V191.379C243.003 189.161 242.568 186.963 241.719 184.913C240.87 182.863 239.624 181.001 238.054 179.435C236.483 181.001 235.237 182.863 234.388 184.913C233.539 186.963 233.104 189.161 233.107 191.379Z" fill="#407BFF"/>
<path opacity="0.8" d="M233.107 191.379V206.067C236.339 206.996 239.768 206.996 243 206.067V191.379C243.003 189.161 242.568 186.963 241.719 184.913C240.87 182.863 239.624 181.001 238.054 179.435C236.483 181.001 235.237 182.863 234.388 184.913C233.539 186.963 233.104 189.161 233.107 191.379Z" fill="white"/>
<path d="M233.107 191.379V193.097C236.34 194.02 239.767 194.02 243 193.097V191.379C243.003 189.161 242.568 186.963 241.719 184.913C240.87 182.863 239.624 181.001 238.054 179.435C236.483 181.001 235.237 182.863 234.388 184.913C233.539 186.963 233.104 189.161 233.107 191.379Z" fill="#407BFF"/>
<path opacity="0.4" d="M233.107 191.379V193.097C236.34 194.02 239.767 194.02 243 193.097V191.379C243.003 189.161 242.568 186.963 241.719 184.913C240.87 182.863 239.624 181.001 238.054 179.435C236.483 181.001 235.237 182.863 234.388 184.913C233.539 186.963 233.104 189.161 233.107 191.379Z" fill="white"/>
<path d="M273.532 236.729L272.236 231.394H267.548L266.242 236.729C268.575 237.695 271.198 237.695 273.532 236.729Z" fill="#263238"/>
<path opacity="0.2" d="M267.548 231.394L267.246 232.636C268.973 233.143 270.811 233.143 272.538 232.636L272.236 231.394H267.548Z" fill="white"/>
<path opacity="0.4" d="M266.911 233.975C266.836 234.32 266.749 234.655 266.674 234.979C268.783 235.642 271.045 235.642 273.154 234.979L272.905 233.975C270.927 234.375 268.889 234.375 266.911 233.975Z" fill="white"/>
<path d="M274.838 231.015C271.671 232.323 268.113 232.323 264.946 231.015V191.379C264.942 189.161 265.378 186.963 266.227 184.913C267.076 182.863 268.321 181.001 269.892 179.435C271.463 181.001 272.708 182.863 273.557 184.913C274.406 186.963 274.842 189.161 274.838 191.379V231.015Z" fill="#407BFF"/>
<path d="M264.946 191.379V228.737C268.148 229.854 271.636 229.854 274.838 228.737V191.379C274.842 189.161 274.406 186.963 273.557 184.913C272.708 182.863 271.463 181.001 269.892 179.435C268.321 181.001 267.076 182.863 266.227 184.913C265.378 186.963 264.942 189.161 264.946 191.379Z" fill="#407BFF"/>
<path opacity="0.4" d="M264.946 191.379V228.737C268.148 229.854 271.636 229.854 274.838 228.737V191.379C274.842 189.161 274.406 186.963 273.557 184.913C272.708 182.863 271.463 181.001 269.892 179.435C268.321 181.001 267.076 182.863 266.227 184.913C265.378 186.963 264.942 189.161 264.946 191.379Z" fill="white"/>
<path d="M264.946 191.379V219.459C268.179 220.383 271.605 220.383 274.838 219.459V191.379C274.842 189.161 274.406 186.963 273.557 184.913C272.708 182.863 271.463 181.001 269.892 179.435C268.321 181.001 267.076 182.863 266.227 184.913C265.378 186.963 264.942 189.161 264.946 191.379Z" fill="#407BFF"/>
<path opacity="0.6" d="M264.946 191.379V219.459C268.179 220.383 271.605 220.383 274.838 219.459V191.379C274.842 189.161 274.406 186.963 273.557 184.913C272.708 182.863 271.463 181.001 269.892 179.435C268.321 181.001 267.076 182.863 266.227 184.913C265.378 186.963 264.942 189.161 264.946 191.379Z" fill="white"/>
<path d="M264.946 191.379V206.067C268.178 206.996 271.606 206.996 274.838 206.067V191.379C274.842 189.161 274.406 186.963 273.557 184.913C272.708 182.863 271.463 181.001 269.892 179.435C268.321 181.001 267.076 182.863 266.227 184.913C265.378 186.963 264.942 189.161 264.946 191.379Z" fill="#407BFF"/>
<path opacity="0.8" d="M264.946 191.379V206.067C268.178 206.996 271.606 206.996 274.838 206.067V191.379C274.842 189.161 274.406 186.963 273.557 184.913C272.708 182.863 271.463 181.001 269.892 179.435C268.321 181.001 267.076 182.863 266.227 184.913C265.378 186.963 264.942 189.161 264.946 191.379Z" fill="white"/>
<path d="M264.946 191.379V193.097C268.179 194.02 271.605 194.02 274.838 193.097V191.379C274.842 189.161 274.406 186.963 273.557 184.913C272.708 182.863 271.463 181.001 269.892 179.435C268.321 181.001 267.076 182.863 266.227 184.913C265.378 186.963 264.942 189.161 264.946 191.379Z" fill="#407BFF"/>
<path opacity="0.4" d="M264.946 191.379V193.097C268.179 194.02 271.605 194.02 274.838 193.097V191.379C274.842 189.161 274.406 186.963 273.557 184.913C272.708 182.863 271.463 181.001 269.892 179.435C268.321 181.001 267.076 182.863 266.227 184.913C265.378 186.963 264.942 189.161 264.946 191.379Z" fill="white"/>
<path d="M259.859 239.786L257.699 231.146H250.139L248.033 239.786C249.905 240.571 251.915 240.976 253.946 240.976C255.976 240.976 257.986 240.571 259.859 239.786Z" fill="#263238"/>
<path opacity="0.2" d="M250.193 231.178C250.193 231.178 249.88 232.474 249.696 233.187C252.489 234.002 255.457 234.002 258.25 233.187L257.753 231.167L250.193 231.178Z" fill="white"/>
<path opacity="0.4" d="M249.167 235.357L248.778 236.977C252.162 238.025 255.784 238.025 259.168 236.977L258.779 235.357C255.605 235.983 252.34 235.983 249.167 235.357Z" fill="white"/>
<path d="M261.965 230.54C259.433 231.597 256.716 232.141 253.973 232.141C251.229 232.141 248.513 231.597 245.981 230.54V166.583C245.977 163.001 246.682 159.455 248.053 156.146C249.425 152.838 251.436 149.833 253.973 147.305C256.509 149.833 258.521 152.838 259.892 156.146C261.264 159.455 261.968 163.001 261.965 166.583V230.54Z" fill="#407BFF"/>
<path d="M245.981 166.583V226.901C251.158 228.694 256.788 228.694 261.965 226.901V166.583C261.968 163.001 261.264 159.455 259.892 156.146C258.521 152.838 256.509 149.833 253.973 147.305C251.436 149.833 249.425 152.838 248.053 156.146C246.682 159.455 245.977 163.001 245.981 166.583Z" fill="#407BFF"/>
<path opacity="0.4" d="M245.981 166.583V226.901C251.158 228.694 256.788 228.694 261.965 226.901V166.583C261.968 163.001 261.264 159.455 259.892 156.146C258.521 152.838 256.509 149.833 253.973 147.305C251.436 149.833 249.425 152.838 248.053 156.146C246.682 159.455 245.977 163.001 245.981 166.583Z" fill="white"/>
<path d="M245.981 166.583V211.878C251.205 213.367 256.741 213.367 261.965 211.878V166.583C261.968 163.001 261.264 159.455 259.892 156.146C258.521 152.838 256.509 149.833 253.973 147.305C251.436 149.833 249.425 152.838 248.053 156.146C246.682 159.455 245.977 163.001 245.981 166.583Z" fill="#407BFF"/>
<path opacity="0.6" d="M245.981 166.583V211.878C251.205 213.367 256.741 213.367 261.965 211.878V166.583C261.968 163.001 261.264 159.455 259.892 156.146C258.521 152.838 256.509 149.833 253.973 147.305C251.436 149.833 249.425 152.838 248.053 156.146C246.682 159.455 245.977 163.001 245.981 166.583Z" fill="white"/>
<path d="M245.981 166.583V190.343C251.205 191.831 256.741 191.831 261.965 190.343V166.583C261.968 163.001 261.264 159.455 259.892 156.146C258.521 152.838 256.509 149.833 253.973 147.305C251.436 149.833 249.425 152.838 248.053 156.146C246.682 159.455 245.977 163.001 245.981 166.583Z" fill="#407BFF"/>
<path opacity="0.8" d="M245.981 166.583V190.343C251.205 191.831 256.741 191.831 261.965 190.343V166.583C261.968 163.001 261.264 159.455 259.892 156.146C258.521 152.838 256.509 149.833 253.973 147.305C251.436 149.833 249.425 152.838 248.053 156.146C246.682 159.455 245.977 163.001 245.981 166.583Z" fill="white"/>
<path d="M245.981 166.583V169.358C251.205 170.847 256.741 170.847 261.965 169.358V166.583C261.968 163.001 261.264 159.455 259.892 156.146C258.521 152.838 256.509 149.833 253.973 147.305C251.436 149.833 249.425 152.838 248.053 156.146C246.682 159.455 245.977 163.001 245.981 166.583Z" fill="#407BFF"/>
<path opacity="0.1" d="M245.981 166.583V169.358C251.205 170.847 256.741 170.847 261.965 169.358V166.583C261.968 163.001 261.264 159.455 259.892 156.146C258.521 152.838 256.509 149.833 253.973 147.305C251.436 149.833 249.425 152.838 248.053 156.146C246.682 159.455 245.977 163.001 245.981 166.583Z" fill="white"/>
<path d="M258.628 179.38C258.63 180.301 258.359 181.202 257.848 181.969C257.338 182.736 256.612 183.335 255.762 183.688C254.911 184.042 253.975 184.136 253.071 183.958C252.168 183.779 251.337 183.337 250.685 182.686C250.033 182.036 249.589 181.206 249.408 180.303C249.228 179.4 249.319 178.463 249.671 177.612C250.023 176.761 250.62 176.034 251.386 175.522C252.151 175.01 253.052 174.736 253.973 174.736C255.205 174.736 256.388 175.225 257.26 176.096C258.133 176.966 258.625 178.148 258.628 179.38Z" fill="#407BFF"/>
<path d="M253.973 184.036C252.796 184.039 251.663 183.594 250.803 182.791C249.942 181.989 249.419 180.89 249.34 179.716C249.34 179.835 249.34 179.953 249.34 180.061C249.34 181.296 249.83 182.48 250.703 183.353C251.576 184.226 252.76 184.716 253.994 184.716C255.229 184.716 256.413 184.226 257.286 183.353C258.159 182.48 258.649 181.296 258.649 180.061C258.649 179.953 258.649 179.835 258.649 179.716C258.567 180.896 258.037 182 257.168 182.803C256.299 183.606 255.156 184.047 253.973 184.036Z" fill="#407BFF"/>
<path opacity="0.3" d="M253.973 184.036C252.796 184.039 251.663 183.594 250.803 182.791C249.942 181.989 249.419 180.89 249.34 179.716C249.34 179.835 249.34 179.953 249.34 180.061C249.34 181.296 249.83 182.48 250.703 183.353C251.576 184.226 252.76 184.716 253.994 184.716C255.229 184.716 256.413 184.226 257.286 183.353C258.159 182.48 258.649 181.296 258.649 180.061C258.649 179.953 258.649 179.835 258.649 179.716C258.567 180.896 258.037 182 257.168 182.803C256.299 183.606 255.156 184.047 253.973 184.036Z" fill="black"/>
<path d="M253.973 182.675C255.792 182.675 257.267 181.2 257.267 179.381C257.267 177.562 255.792 176.087 253.973 176.087C252.154 176.087 250.679 177.562 250.679 179.381C250.679 181.2 252.154 182.675 253.973 182.675Z" fill="white"/>
<path d="M253.8 182.653L255.15 176.324C254.806 176.189 254.44 176.116 254.07 176.108L252.72 182.426C253.063 182.566 253.429 182.643 253.8 182.653Z" fill="#407BFF"/>
<path d="M255.031 182.491L256.198 176.973C256.047 176.835 255.885 176.712 255.712 176.605L254.426 182.632C254.632 182.602 254.834 182.555 255.031 182.491Z" fill="#407BFF"/>
<g opacity="0.7">
<path d="M253.8 182.653L255.15 176.324C254.806 176.189 254.44 176.116 254.07 176.108L252.72 182.426C253.063 182.566 253.429 182.643 253.8 182.653Z" fill="white"/>
<path d="M255.031 182.491L256.198 176.973C256.047 176.835 255.885 176.712 255.712 176.605L254.426 182.632C254.632 182.602 254.834 182.555 255.031 182.491Z" fill="white"/>
</g>
<path d="M373.216 304.261L371.974 304.531C371.418 304.643 370.911 304.926 370.523 305.341C370.136 305.755 369.888 306.28 369.814 306.842L369.706 307.717C369.649 308.154 369.7 308.597 369.855 309.01C370.009 309.422 370.262 309.79 370.591 310.082C372.632 311.864 377.449 315.169 383.281 313.041L387.936 309.531L387.169 303.246L377.449 301.842C376.861 301.863 376.297 302.076 375.84 302.447L373.216 304.261Z" fill="#FAB27B"/>
<path d="M387.968 309.531L400.896 308.883L398.898 301.853L387.202 303.246L387.968 309.531Z" fill="#FAB27B"/>
<path d="M395.669 301.906C395.139 302.898 394.956 304.038 395.15 305.146C395.385 306.94 396.106 308.635 397.235 310.049C395.057 310.082 392.914 310.61 390.971 311.594L390.863 311.648C384.124 307.047 388.012 301.593 388.012 301.593L388.454 301.658C390.844 301.988 393.262 302.072 395.669 301.906Z" fill="#407BFF"/>
<path d="M422.14 307.706C410.13 310.471 395.194 310.201 395.194 310.201C394.702 309.371 394.479 308.409 394.556 307.447C394.664 305.438 394.934 302.922 395.636 301.907C396.338 300.891 401.533 300.351 401.533 300.351C401.533 300.351 411.566 295.697 413.467 294.174C415.368 292.651 415.292 285.534 414.936 280.857C413.024 255.726 417.442 253.857 421.416 252.702C429.84 250.358 432.767 305.255 422.14 307.706Z" fill="#407BFF"/>
<path d="M339.854 313.095H373.421C374.501 313.095 375.008 312.21 374.501 311.119L366.12 292.186C365.858 291.635 365.456 291.162 364.954 290.815C364.451 290.468 363.867 290.259 363.258 290.21H329.681C328.601 290.21 328.093 291.096 328.601 292.186L337.025 311.119C337.283 311.667 337.68 312.137 338.176 312.484C338.673 312.831 339.251 313.042 339.854 313.095Z" fill="#407BFF"/>
<path opacity="0.2" d="M339.854 313.095H373.421C374.501 313.095 375.008 312.21 374.501 311.119L366.12 292.186C365.858 291.635 365.456 291.162 364.954 290.815C364.451 290.468 363.867 290.259 363.258 290.21H329.681C328.601 290.21 328.093 291.096 328.601 292.186L337.025 311.119C337.283 311.667 337.68 312.137 338.176 312.484C338.673 312.831 339.251 313.042 339.854 313.095Z" fill="black"/>
<path d="M328.223 290.21H329.681C328.601 290.21 328.093 291.096 328.601 292.186L337.025 311.119C337.285 311.67 337.685 312.142 338.185 312.489C338.686 312.836 339.269 313.045 339.876 313.095H338.429C337.82 313.046 337.235 312.837 336.733 312.49C336.231 312.144 335.828 311.67 335.567 311.119L327.154 292.186C326.646 291.096 327.132 290.21 328.223 290.21Z" fill="#407BFF"/>
<path opacity="0.4" d="M328.223 290.21H329.681C328.601 290.21 328.093 291.096 328.601 292.186L337.025 311.119C337.285 311.67 337.685 312.142 338.185 312.489C338.686 312.836 339.269 313.045 339.876 313.095H338.429C337.82 313.046 337.235 312.837 336.733 312.49C336.231 312.144 335.828 311.67 335.567 311.119L327.154 292.186C326.646 291.096 327.132 290.21 328.223 290.21Z" fill="black"/>
<path d="M340.481 310.924H370.861L362.621 292.381H332.24L340.481 310.924Z" fill="#263238"/>
<path opacity="0.8" d="M340.481 310.924H370.861L362.621 292.381H332.24L340.481 310.924Z" fill="white"/>
<path d="M440.446 311.615C440.446 311.615 441.277 322.696 441.396 326.584C442.206 352.558 421.006 354.535 405.41 351.673L348.926 335.883C346.691 343.389 320.576 384.721 320.576 384.721L306.85 376.837C306.85 376.837 321.084 342.719 330.275 318.97C335.513 305.416 378.205 314.791 393.93 317.588C398.704 318.873 397.786 311.41 397.786 311.41L440.446 311.615Z" fill="#263238"/>
<path d="M317.077 383.943L311.828 392.68L302.054 387.82L307.141 377.873L317.077 383.943Z" fill="#FAB27B"/>
<path d="M296.849 386.06C295.564 385.466 294.332 384.624 294.16 383.9C294.129 383.69 294.16 383.476 294.251 383.284C294.341 383.092 294.486 382.93 294.667 382.82C294.824 382.714 295 382.64 295.185 382.603C295.371 382.566 295.562 382.566 295.747 382.604C297.702 382.917 300.38 386.643 300.488 386.805C300.523 386.85 300.541 386.905 300.541 386.962C300.541 387.018 300.523 387.073 300.488 387.118C300.454 387.161 300.409 387.194 300.358 387.213C300.306 387.232 300.251 387.237 300.197 387.226C299.049 386.937 297.928 386.547 296.849 386.06ZM296.125 383.284C295.969 383.208 295.801 383.157 295.628 383.133C295.52 383.104 295.407 383.099 295.296 383.12C295.186 383.14 295.082 383.186 294.991 383.252C294.667 383.479 294.656 383.652 294.689 383.77C294.862 384.667 297.475 385.876 299.516 386.524C298.605 385.227 297.454 384.116 296.125 383.252V383.284Z" fill="#407BFF"/>
<path d="M300.121 387.139C300.09 387.152 300.055 387.152 300.024 387.139C299.041 386.059 297.572 382.636 298.328 381.567C298.48 381.297 298.847 381.048 299.56 381.297C299.819 381.388 300.057 381.53 300.259 381.716C300.461 381.902 300.624 382.126 300.737 382.377C301.558 384.072 300.553 386.999 300.51 387.129C300.494 387.175 300.465 387.216 300.427 387.246C300.389 387.277 300.343 387.296 300.294 387.301C300.255 387.289 300.219 387.269 300.189 387.24C300.159 387.212 300.136 387.178 300.121 387.139ZM299.506 381.739L299.376 381.664C298.912 381.491 298.804 381.664 298.76 381.718C298.372 382.388 299.203 384.893 300.143 386.243C300.557 385.01 300.583 383.679 300.218 382.431C300.074 382.121 299.82 381.875 299.506 381.739Z" fill="#407BFF"/>
<path d="M301.882 386.222L313.2 391.395C313.401 391.487 313.566 391.643 313.669 391.838C313.773 392.033 313.809 392.257 313.772 392.475L311.612 402.627C311.569 402.843 311.483 403.047 311.359 403.229C311.236 403.411 311.078 403.567 310.894 403.687C310.711 403.808 310.505 403.891 310.289 403.931C310.073 403.972 309.851 403.969 309.636 403.923C309.52 403.902 309.408 403.866 309.301 403.815C305.251 401.882 301.741 399.992 296.633 397.681C290.639 394.938 291.827 396.352 284.753 393.22C280.433 391.33 281.912 386.146 283.813 386.74C292.54 389.484 294.538 387.378 299.074 385.887C300.019 385.644 301.02 385.763 301.882 386.222Z" fill="#263238"/>
<path opacity="0.2" d="M314.41 388.381L317.077 383.943L307.141 377.873L304.679 382.679L314.41 388.381Z" fill="black"/>
<path d="M322.758 383.9L305.737 373.283C304.963 373.715 304.34 374.375 303.954 375.173C303.568 375.971 303.436 376.868 303.577 377.744L319.95 388.22C319.95 388.22 322.142 388.079 322.758 383.9Z" fill="#407BFF"/>
<path d="M346.043 427.413L343.98 437.1L333.461 435.718L334.994 424.961L346.043 427.413Z" fill="#FAB27B"/>
<path d="M328.115 435.739C326.743 435.599 325.35 435.21 324.95 434.573C324.863 434.4 324.829 434.206 324.852 434.013C324.875 433.821 324.954 433.64 325.08 433.493C325.296 433.209 325.613 433.019 325.966 432.964C327.856 432.64 331.495 435.21 331.657 435.329C331.7 435.36 331.733 435.404 331.75 435.454C331.767 435.504 331.769 435.559 331.754 435.61C331.738 435.662 331.707 435.708 331.665 435.742C331.622 435.777 331.571 435.798 331.517 435.804C330.383 435.88 329.245 435.858 328.115 435.739ZM326.57 433.417C326.402 433.39 326.231 433.39 326.063 433.417C325.954 433.426 325.848 433.458 325.752 433.513C325.657 433.567 325.575 433.641 325.512 433.731C325.285 434.044 325.339 434.206 325.404 434.303C325.847 435.07 328.644 435.383 330.707 435.307C329.461 434.415 328.058 433.766 326.57 433.396V433.417Z" fill="#407BFF"/>
<path d="M331.484 435.74C331.449 435.752 331.411 435.752 331.376 435.74C330.113 435.017 327.694 432.371 328.05 431.15C328.104 430.848 328.363 430.513 329.13 430.513C329.391 430.509 329.651 430.559 329.892 430.659C330.134 430.759 330.352 430.908 330.534 431.096C331.83 432.392 331.83 435.416 331.83 435.535C331.831 435.582 331.818 435.629 331.793 435.669C331.768 435.709 331.732 435.741 331.69 435.762C331.657 435.778 331.62 435.784 331.584 435.78C331.548 435.777 331.513 435.763 331.484 435.74ZM329.216 431.01H329.076C328.601 431.01 328.547 431.193 328.525 431.258C328.385 432.003 329.94 434.045 331.225 434.984C331.218 433.722 330.822 432.492 330.091 431.463C329.859 431.223 329.549 431.074 329.216 431.042V431.01Z" fill="#407BFF"/>
<path d="M332.802 434.293L344.844 435.481C345.065 435.502 345.273 435.598 345.432 435.753C345.591 435.908 345.693 436.113 345.719 436.334L346.939 446.346C346.991 446.772 346.873 447.202 346.61 447.541C346.347 447.881 345.961 448.103 345.535 448.16C345.42 448.171 345.305 448.171 345.19 448.16C340.87 447.652 337.014 447.08 331.614 446.518C325.231 445.892 326.776 446.81 319.259 446.184C314.734 445.795 314.41 440.578 316.354 440.514C325.231 440.276 326.408 437.716 330.091 434.908C330.89 434.381 331.854 434.162 332.802 434.293Z" fill="#263238"/>
<path opacity="0.2" d="M334.184 430.62L345.179 431.473L346.043 427.413L334.994 424.961L334.184 430.62Z" fill="black"/>
<path d="M349.164 423.579L348.851 424.799L332.726 423.525L332.899 422.305L349.164 423.579Z" fill="#263238"/>
<path d="M349.823 428.633L345.848 428.277L334.66 427.273L331.052 426.949C330.54 426.259 330.249 425.43 330.22 424.571C330.192 423.712 330.425 422.865 330.89 422.143L332.899 422.305L349.164 423.579L350.33 423.676C351.68 427.553 349.823 428.633 349.823 428.633Z" fill="#407BFF"/>
<path d="M415.292 361.306C400.702 362.591 367.049 363.131 362.491 362.462L349.164 423.579L332.899 422.304C332.899 422.304 334.616 369.46 341.788 347.612C347.555 330.051 439.808 333.69 439.808 333.69L440.132 338.637C440.77 355.679 432 359.826 415.292 361.306Z" fill="#263238"/>
<path opacity="0.1" d="M415.292 361.306C400.702 362.591 367.049 363.131 362.491 362.462L349.164 423.579L332.899 422.304C332.899 422.304 334.616 369.46 341.788 347.612C347.555 330.051 439.808 333.69 439.808 333.69L440.132 338.637C440.77 355.679 432 359.826 415.292 361.306Z" fill="black"/>
<path d="M341.528 353.995C341.523 353.898 341.523 353.8 341.528 353.703V353.995Z" fill="#263238"/>
<path d="M342.619 346.1L342.457 347.298C342.488 346.896 342.542 346.496 342.619 346.1Z" fill="#263238"/>
<path d="M394.265 250.617L398.747 257.162L408.823 248.543L402.527 240.811L394.265 250.617Z" fill="#FAB27B"/>
<path opacity="0.2" d="M396.511 253.717C398.455 250.855 397.591 246.416 397.591 246.416L395.82 248.673L394.286 250.617L396.511 253.717Z" fill="black"/>
<path d="M377.028 236.199C377.244 236.836 377.762 237.279 378.184 237.084C378.605 236.89 378.788 236.253 378.562 235.637C378.335 235.021 377.838 234.557 377.406 234.762C376.974 234.967 376.823 235.561 377.028 236.199Z" fill="#263238"/>
<path d="M379.361 236.394L377.935 242.506C378.656 242.657 379.402 242.637 380.114 242.45C380.827 242.263 381.486 241.912 382.039 241.426L379.361 236.394Z" fill="#ED893E"/>
<path d="M376.391 231.739C376.443 231.712 376.5 231.698 376.558 231.698C376.616 231.698 376.674 231.712 376.726 231.739C377.134 231.91 377.577 231.982 378.018 231.948C378.459 231.914 378.886 231.776 379.264 231.544C379.3 231.515 379.342 231.495 379.386 231.483C379.431 231.471 379.477 231.469 379.523 231.476C379.569 231.483 379.612 231.499 379.651 231.524C379.69 231.549 379.724 231.581 379.75 231.62C379.801 231.698 379.821 231.793 379.805 231.885C379.789 231.978 379.738 232.06 379.663 232.117C379.19 232.432 378.646 232.624 378.08 232.675C377.514 232.726 376.945 232.634 376.423 232.408C376.379 232.391 376.339 232.366 376.304 232.334C376.27 232.301 376.243 232.262 376.223 232.219C376.204 232.176 376.194 232.129 376.193 232.082C376.192 232.035 376.201 231.988 376.218 231.944C376.255 231.86 376.315 231.789 376.391 231.739Z" fill="#263238"/>
<path d="M400.972 225.139C404.212 233.488 405.821 236.955 403.596 243.121C399.222 250.411 389.146 254.839 383.4 247.69C378.238 241.21 373.756 228.714 380.3 221.554C382.486 219.101 385.552 217.611 388.831 217.408C392.111 217.206 395.337 218.308 397.807 220.474C399.221 221.753 400.306 223.353 400.972 225.139Z" fill="#FAB27B"/>
<path d="M408.877 227.624C408.422 230.426 408.144 233.254 408.046 236.091C407.968 238.709 407.112 241.245 405.587 243.375C404.061 245.504 401.936 247.131 399.481 248.047C399.481 248.047 387.709 247.906 382.709 233.099C381.325 233.23 379.931 233.018 378.649 232.483C377.367 231.947 376.236 231.104 375.357 230.029C374.478 228.953 373.876 227.677 373.607 226.314C373.337 224.951 373.406 223.543 373.81 222.213C374.771 219.059 378.756 217.094 382.05 216.975C383.13 215.572 384.537 214.457 386.149 213.726C387.762 212.995 389.528 212.672 391.295 212.785C394.857 213.073 398.298 214.214 401.328 216.111C404.063 217.479 406.376 219.562 408.024 222.137C408.904 223.822 409.204 225.751 408.877 227.624Z" fill="#263238"/>
<path d="M385.16 234.86C384.787 235.695 384.584 236.595 384.561 237.509C384.539 238.423 384.699 239.333 385.031 240.184C385.938 242.442 388.357 242.064 389.75 240.184C391.014 238.467 392.04 235.249 390.334 233.586C388.627 231.922 386.1 232.808 385.16 234.86Z" fill="#FAB27B"/>
<path d="M408.91 243.673C405.67 243.813 400.885 246.006 394.492 250.412C394.158 250.702 393.903 251.072 393.752 251.488C393.601 251.904 393.558 252.351 393.628 252.788C393.703 253.652 394.567 254.462 395.388 254.192C395.809 255.272 396.09 256.46 396.468 257.497C398.466 256.478 400.539 255.612 402.667 254.905C405.89 253.62 409.191 252.538 412.549 251.665C411.653 250.293 410.454 248.954 410.098 247.345C410.476 247.177 410.783 246.882 410.967 246.511C411.15 246.14 411.198 245.717 411.102 245.314C410.918 244.869 410.617 244.481 410.232 244.192C409.846 243.903 409.389 243.724 408.91 243.673Z" fill="#407BFF"/>
<path d="M408.91 243.673C405.67 243.813 400.885 246.006 394.492 250.412C394.158 250.702 393.903 251.072 393.752 251.488C393.601 251.904 393.558 252.351 393.628 252.788C393.703 253.652 394.567 254.462 395.388 254.192C395.809 255.272 396.09 256.46 396.468 257.497C398.466 256.478 400.539 255.612 402.667 254.905C405.89 253.62 409.191 252.538 412.549 251.665C411.653 250.293 410.454 248.954 410.098 247.345C410.476 247.177 410.783 246.882 410.967 246.511C411.15 246.14 411.198 245.717 411.102 245.314C410.918 244.869 410.617 244.481 410.232 244.192C409.846 243.903 409.389 243.724 408.91 243.673Z" fill="#407BFF"/>
<path d="M399.427 326.401C392.573 309.997 386.741 293.185 381.964 276.062C376.952 257.356 391.262 257.032 408.532 252.388C422.226 248.705 428.08 251.999 431.989 258.944C435.899 265.888 442.206 324.662 442.206 324.662L399.427 326.401Z" fill="#407BFF"/>
<path d="M399.427 326.401C392.573 309.997 386.741 293.185 381.964 276.062C376.952 257.356 391.262 257.032 408.532 252.388C422.226 248.705 428.08 251.999 431.989 258.944C435.899 265.888 442.206 324.662 442.206 324.662L399.427 326.401Z" fill="#407BFF"/>
<path opacity="0.3" d="M399.427 326.401C392.573 309.997 386.741 293.185 381.964 276.062C376.952 257.356 391.262 257.032 408.532 252.388C422.226 248.705 428.08 251.999 431.989 258.944C435.899 265.888 442.206 324.662 442.206 324.662L399.427 326.401Z" fill="black"/>
<path d="M336.96 299.443H335.75C335.211 299.464 334.692 299.652 334.265 299.981C333.837 300.31 333.522 300.764 333.364 301.28L333.115 302.079C332.987 302.48 332.959 302.906 333.035 303.321C333.11 303.735 333.286 304.124 333.547 304.455C335.178 306.474 339.152 310.384 344.995 309.347L349.974 306.82L350.298 300.772L341.42 297.845C340.862 297.769 340.294 297.875 339.8 298.148L336.96 299.443Z" fill="#FAB27B"/>
<path d="M349.996 306.863L362.264 308.408L361.552 301.453L350.32 300.815L349.996 306.863Z" fill="#FAB27B"/>
<path d="M358.56 300.966C357.874 301.818 357.494 302.875 357.48 303.969C357.405 305.698 357.801 307.415 358.625 308.937C356.568 308.602 354.463 308.743 352.469 309.347H352.361C346.788 303.893 351.356 299.411 351.356 299.411L351.767 299.541C353.976 300.25 356.252 300.728 358.56 300.966Z" fill="#407BFF"/>
<path d="M382.45 310.827C370.688 311.432 356.681 308.667 356.681 308.667C356.354 307.804 356.301 306.861 356.53 305.967C356.972 304.088 357.61 301.766 358.506 300.934C359.402 300.103 364.316 300.459 364.316 300.459C364.316 300.459 374.533 297.738 376.574 296.625C378.616 295.513 379.728 288.86 380.16 284.367C382.547 260.391 387.018 259.354 390.96 258.955C399.222 258.134 392.861 310.298 382.45 310.827Z" fill="#407BFF"/>
<path d="M346.939 446.346L357.912 378.5C358.476 375.031 360.256 371.876 362.933 369.598C365.61 367.321 369.01 366.07 372.524 366.069H399.47C403.091 366.067 406.587 367.393 409.296 369.795C412.004 372.198 413.738 375.51 414.169 379.105L422.312 447.253" stroke="#263238" stroke-width="2" stroke-miterlimit="10"/>
<path d="M384.631 446.346L395.604 378.5C396.168 375.031 397.948 371.876 400.625 369.598C403.302 367.321 406.702 366.07 410.216 366.069H437.162C440.782 366.068 444.276 367.394 446.983 369.796C449.69 372.199 451.422 375.511 451.85 379.105L460.004 447.253" stroke="#263238" stroke-width="2" stroke-miterlimit="10"/>
<path d="M349.823 428.634H386.91" stroke="#263238" stroke-width="2" stroke-miterlimit="10"/>
<path d="M414.169 379.126H452.52" stroke="#263238" stroke-width="2" stroke-miterlimit="10"/>
<path d="M421.2 367.635H449.42C454.667 367.635 459.721 365.657 463.575 362.096C467.428 358.535 469.797 353.652 470.21 348.421L474.228 297.726C474.381 295.786 474.132 293.836 473.497 291.997C472.861 290.158 471.853 288.47 470.535 287.038C469.217 285.607 467.618 284.463 465.838 283.678C464.057 282.893 462.134 282.484 460.188 282.477H444.528C435.668 282.477 427.044 285.337 419.94 290.632C412.835 295.926 407.63 303.373 405.097 311.863L394.297 348.054C393.417 351.011 391.605 353.604 389.132 355.447C386.658 357.29 383.655 358.284 380.57 358.282H360.828C358.349 358.285 355.973 359.271 354.222 361.025C352.47 362.779 351.486 365.156 351.486 367.635H421.2Z" fill="#407BFF"/>
<path opacity="0.7" d="M421.2 367.635H449.42C454.667 367.635 459.721 365.657 463.575 362.096C467.428 358.535 469.797 353.652 470.21 348.421L474.228 297.726C474.381 295.786 474.132 293.836 473.497 291.997C472.861 290.158 471.853 288.47 470.535 287.038C469.217 285.607 467.618 284.463 465.838 283.678C464.057 282.893 462.134 282.484 460.188 282.477H444.528C435.668 282.477 427.044 285.337 419.94 290.632C412.835 295.926 407.63 303.373 405.097 311.863L394.297 348.054C393.417 351.011 391.605 353.604 389.132 355.447C386.658 357.29 383.655 358.284 380.57 358.282H360.828C358.349 358.285 355.973 359.271 354.222 361.025C352.47 362.779 351.486 365.156 351.486 367.635H421.2Z" fill="white"/>
<path d="M393.217 192.675V192.557C393.223 192.596 393.223 192.636 393.217 192.675Z" fill="#407BFF"/>
<path d="M342.36 179.002C338.663 182.409 335.957 186.753 334.53 191.574H332.554C333.237 186.148 335.268 180.98 338.461 176.54L342.36 179.002Z" fill="#407BFF"/>
<path opacity="0.6" d="M342.36 179.002C338.663 182.409 335.957 186.753 334.53 191.574H332.554C333.237 186.148 335.268 180.98 338.461 176.54L342.36 179.002Z" fill="white"/>
<path d="M353.808 172.533C349.53 173.75 345.605 175.972 342.36 179.013L338.461 176.54C341.643 172.088 345.832 168.45 350.687 165.924L353.808 172.533Z" fill="#407BFF"/>
<path opacity="0.5" d="M353.808 172.533C349.53 173.75 345.605 175.972 342.36 179.013L338.461 176.54C341.643 172.088 345.832 168.45 350.687 165.924L353.808 172.533Z" fill="white"/>
<path d="M365.936 162.284L364.975 171.929C363.595 171.688 362.197 171.569 360.796 171.572C358.434 171.574 356.083 171.898 353.808 172.533L350.687 165.945C355.253 163.553 360.328 162.297 365.483 162.284H365.936Z" fill="#407BFF"/>
<path opacity="0.4" d="M365.936 162.284L364.975 171.929C363.595 171.688 362.197 171.569 360.796 171.572C358.434 171.574 356.083 171.898 353.808 172.533L350.687 165.945C355.253 163.553 360.328 162.297 365.483 162.284H365.936Z" fill="white"/>
<path d="M380.387 166.377L374.09 175.611C371.358 173.732 368.246 172.475 364.975 171.929L365.936 162.284C371.034 162.32 376.027 163.735 380.387 166.377Z" fill="#407BFF"/>
<path opacity="0.3" d="M380.387 166.377L374.09 175.611C371.358 173.732 368.246 172.475 364.975 171.929L365.936 162.284C371.034 162.32 376.027 163.735 380.387 166.377Z" fill="white"/>
<path d="M390.377 177.263L380.549 182.523C378.915 179.777 376.704 177.419 374.069 175.611L380.365 166.377C384.651 169.003 388.118 172.773 390.377 177.263Z" fill="#407BFF"/>
<path opacity="0.2" d="M390.377 177.263L380.549 182.523C378.915 179.777 376.704 177.419 374.069 175.611L380.365 166.377C384.651 169.003 388.118 172.773 390.377 177.263Z" fill="white"/>
<path d="M393.25 192.276L383.638 192.168C383.337 188.763 382.282 185.469 380.549 182.523L390.377 177.264C392.681 181.913 393.674 187.104 393.25 192.276Z" fill="#407BFF"/>
<path opacity="0.1" d="M393.25 192.276L383.638 192.168C383.337 188.763 382.282 185.469 380.549 182.523L390.377 177.264C392.681 181.913 393.674 187.104 393.25 192.276Z" fill="white"/>
<path d="M393.228 192.557C393.233 192.596 393.233 192.636 393.228 192.676C392.84 196.055 391.978 199.364 390.668 202.504L382.882 200.743L383.508 197.773C383.562 197.384 383.616 196.996 383.648 196.607V196.369C383.773 194.972 383.773 193.566 383.648 192.168L393.26 192.276C393.26 192.341 393.26 192.384 393.26 192.438C393.256 192.479 393.245 192.519 393.228 192.557Z" fill="#407BFF"/>
<path d="M333.72 201.887L333.148 202.017C332.964 201.272 332.813 200.516 332.683 199.749C332.319 197.409 332.232 195.035 332.424 192.675V192.556C332.419 192.517 332.419 192.477 332.424 192.437C332.424 192.146 332.478 191.843 332.521 191.552H334.498C334.039 193.118 333.728 194.723 333.569 196.347C333.569 196.347 333.569 196.423 333.569 196.466C333.569 196.509 333.569 196.541 333.569 196.585C333.497 197.544 333.479 198.507 333.515 199.468C333.558 200.3 333.623 201.099 333.72 201.887Z" fill="#407BFF"/>
<path opacity="0.7" d="M333.72 201.887L333.148 202.017C332.964 201.272 332.813 200.516 332.683 199.749C332.319 197.409 332.232 195.035 332.424 192.675V192.556C332.419 192.517 332.419 192.477 332.424 192.437C332.424 192.146 332.478 191.843 332.521 191.552H334.498C334.039 193.118 333.728 194.723 333.569 196.347C333.569 196.347 333.569 196.423 333.569 196.466C333.569 196.509 333.569 196.541 333.569 196.585C333.497 197.544 333.479 198.507 333.515 199.468C333.558 200.3 333.623 201.099 333.72 201.887Z" fill="white"/>
<path d="M392.602 200.3L391.781 202.33L390.118 201.963L374.62 198.453L367.945 196.941C368.408 196.341 368.793 195.684 369.09 194.986C369.429 194.172 369.634 193.307 369.695 192.427L384.491 197.514L392.602 200.3Z" fill="#263238"/>
<path d="M369.695 192.448C369.571 194.093 368.962 195.664 367.945 196.963L361.951 195.602L363.841 190.439L369.695 192.448Z" fill="#263238"/>
<path d="M369.695 192.448C369.571 194.093 368.962 195.664 367.945 196.963C367.201 197.913 366.267 198.696 365.202 199.263C361.346 201.326 356.8 200.03 355.061 196.347C354.263 194.452 354.214 192.324 354.923 190.394C355.633 188.463 357.048 186.874 358.884 185.947C362.74 183.884 367.286 185.191 369.036 188.863C369.561 189.981 369.788 191.216 369.695 192.448Z" fill="#407BFF"/>
<path d="M123.638 187.88H129.827V193.064H123.023L122.072 200.624H116.672L117.623 193.064H110.635L109.685 200.624H104.393L105.343 193.064H99.1116V187.88H105.959L106.952 180.18H100.732V174.996H107.579L108.529 167.436H113.854L112.903 174.996H119.88L120.83 167.436H126.155L125.204 174.996H131.382V180.18H124.535L123.638 187.88ZM118.238 187.88L119.232 180.18H112.32L111.24 187.88H118.238Z" fill="#407BFF"/>
<path d="M147.074 167.382V200.667H139.374V173.57H132.721V167.382H147.074Z" fill="#407BFF"/>
<path d="M118.217 305.806H64.962V342.472H118.217V305.806Z" fill="#263238"/>
<path d="M118.217 305.806H64.962V309.164H118.217V305.806Z" fill="#407BFF"/>
<path d="M74.7144 326.088L83.43 330.916C83.7564 331.076 84.0496 331.295 84.294 331.564C84.4466 331.778 84.5227 332.036 84.51 332.298C84.5126 332.481 84.4786 332.662 84.4099 332.83C84.3413 332.999 84.2394 333.153 84.1104 333.281C83.9887 333.411 83.8415 333.515 83.678 333.586C83.5145 333.656 83.3381 333.692 83.16 333.692C82.7751 333.646 82.4058 333.513 82.08 333.303L70.848 327.05C70.6711 326.959 70.5226 326.821 70.419 326.652C70.3153 326.482 70.2605 326.287 70.2605 326.088C70.2605 325.89 70.3153 325.695 70.419 325.525C70.5226 325.356 70.6711 325.218 70.848 325.127L82.08 318.874C82.4084 318.671 82.7769 318.542 83.16 318.496C83.521 318.502 83.8655 318.648 84.1198 318.905C84.3741 319.161 84.518 319.507 84.5208 319.868C84.5409 320.131 84.4641 320.392 84.3048 320.602C84.0644 320.878 83.7705 321.102 83.4408 321.261L74.7144 326.088Z" fill="white"/>
<path d="M97.1244 317.092L88.4844 335.657C88.3541 335.999 88.1514 336.308 87.8904 336.565C87.6585 336.752 87.3678 336.851 87.0696 336.845C86.8926 336.845 86.7173 336.81 86.5541 336.741C86.3908 336.673 86.243 336.572 86.1192 336.446C85.9945 336.334 85.8945 336.198 85.8257 336.045C85.7568 335.893 85.7207 335.727 85.7196 335.56C85.7513 335.183 85.8577 334.816 86.0328 334.48L94.6728 315.926C94.8042 315.587 95.0026 315.279 95.256 315.018C95.5127 314.82 95.8327 314.722 96.1565 314.742C96.4803 314.762 96.7858 314.898 97.0164 315.127C97.1417 315.238 97.242 315.374 97.3109 315.527C97.3797 315.679 97.4156 315.845 97.416 316.012C97.3911 316.388 97.292 316.755 97.1244 317.092Z" fill="white"/>
<path d="M108 326.088L99.252 321.261C98.9177 321.105 98.6197 320.88 98.3772 320.602C98.2261 320.388 98.1502 320.13 98.1612 319.868C98.1585 319.688 98.1936 319.509 98.2643 319.344C98.335 319.178 98.4397 319.029 98.5716 318.907C98.6933 318.776 98.8405 318.673 99.004 318.602C99.1676 318.532 99.3439 318.496 99.522 318.496C99.9055 318.541 100.274 318.67 100.602 318.874L111.834 325.127C112.011 325.218 112.159 325.356 112.263 325.525C112.367 325.695 112.422 325.89 112.422 326.088C112.422 326.287 112.367 326.482 112.263 326.652C112.159 326.821 112.011 326.959 111.834 327.05L100.602 333.303C100.277 333.514 99.9072 333.647 99.522 333.692C99.3424 333.692 99.1646 333.656 98.9994 333.585C98.8341 333.514 98.6849 333.411 98.5608 333.281C98.3042 333.019 98.1607 332.666 98.1612 332.298C98.1533 332.037 98.229 331.78 98.3772 331.564C98.6239 331.293 98.9211 331.073 99.252 330.916L108 326.088Z" fill="white"/>
</svg>
