<svg width="400" height="200" viewBox="0 0 400 200" fill="none" xmlns="http://www.w3.org/2000/svg">
<rect width="400" height="200" rx="10" fill="#3E5661"/>
<rect x="40" y="70" width="226" height="60" rx="5" fill="black"/>
<path d="M86.2 107.14C85.2267 107.14 84.3467 106.973 83.56 106.64C82.7867 106.307 82.1733 105.827 81.72 105.2C81.2667 104.573 81.0333 103.833 81.02 102.98H84.02C84.06 103.553 84.26 104.007 84.62 104.34C84.9933 104.673 85.5 104.84 86.14 104.84C86.7933 104.84 87.3067 104.687 87.68 104.38C88.0533 104.06 88.24 103.647 88.24 103.14C88.24 102.727 88.1133 102.387 87.86 102.12C87.6067 101.853 87.2867 101.647 86.9 101.5C86.5267 101.34 86.0067 101.167 85.34 100.98C84.4333 100.713 83.6933 100.453 83.12 100.2C82.56 99.9333 82.0733 99.54 81.66 99.02C81.26 98.4867 81.06 97.78 81.06 96.9C81.06 96.0733 81.2667 95.3533 81.68 94.74C82.0933 94.1267 82.6733 93.66 83.42 93.34C84.1667 93.0067 85.02 92.84 85.98 92.84C87.42 92.84 88.5867 93.1933 89.48 93.9C90.3867 94.5933 90.8867 95.5667 90.98 96.82H87.9C87.8733 96.34 87.6667 95.9467 87.28 95.64C86.9067 95.32 86.4067 95.16 85.78 95.16C85.2333 95.16 84.7933 95.3 84.46 95.58C84.14 95.86 83.98 96.2667 83.98 96.8C83.98 97.1733 84.1 97.4867 84.34 97.74C84.5933 97.98 84.9 98.18 85.26 98.34C85.6333 98.4867 86.1533 98.66 86.82 98.86C87.7267 99.1267 88.4667 99.3933 89.04 99.66C89.6133 99.9267 90.1067 100.327 90.52 100.86C90.9333 101.393 91.14 102.093 91.14 102.96C91.14 103.707 90.9467 104.4 90.56 105.04C90.1733 105.68 89.6067 106.193 88.86 106.58C88.1133 106.953 87.2267 107.14 86.2 107.14ZM103.868 101.22C103.868 101.62 103.841 101.98 103.788 102.3H95.6875C95.7542 103.1 96.0342 103.727 96.5275 104.18C97.0208 104.633 97.6275 104.86 98.3475 104.86C99.3875 104.86 100.128 104.413 100.568 103.52H103.588C103.268 104.587 102.654 105.467 101.748 106.16C100.841 106.84 99.7275 107.18 98.4075 107.18C97.3408 107.18 96.3808 106.947 95.5275 106.48C94.6875 106 94.0275 105.327 93.5475 104.46C93.0808 103.593 92.8475 102.593 92.8475 101.46C92.8475 100.313 93.0808 99.3067 93.5475 98.44C94.0142 97.5733 94.6675 96.9067 95.5075 96.44C96.3475 95.9733 97.3142 95.74 98.4075 95.74C99.4608 95.74 100.401 95.9667 101.228 96.42C102.068 96.8733 102.714 97.52 103.168 98.36C103.634 99.1867 103.868 100.14 103.868 101.22ZM100.968 100.42C100.954 99.7 100.694 99.1267 100.188 98.7C99.6808 98.26 99.0608 98.04 98.3275 98.04C97.6342 98.04 97.0475 98.2533 96.5675 98.68C96.1008 99.0933 95.8142 99.6733 95.7075 100.42H100.968ZM112.051 95.76C113.371 95.76 114.438 96.18 115.251 97.02C116.065 97.8467 116.471 99.0067 116.471 100.5V107H113.671V100.88C113.671 100 113.451 99.3267 113.011 98.86C112.571 98.38 111.971 98.14 111.211 98.14C110.438 98.14 109.825 98.38 109.371 98.86C108.931 99.3267 108.711 100 108.711 100.88V107H105.911V95.92H108.711V97.3C109.085 96.82 109.558 96.4467 110.131 96.18C110.718 95.9 111.358 95.76 112.051 95.76ZM118.414 101.42C118.414 100.3 118.634 99.3067 119.074 98.44C119.527 97.5733 120.141 96.9067 120.914 96.44C121.687 95.9733 122.547 95.74 123.494 95.74C124.214 95.74 124.901 95.9 125.554 96.22C126.207 96.5267 126.727 96.94 127.114 97.46V92.2H129.954V107H127.114V105.36C126.767 105.907 126.281 106.347 125.654 106.68C125.027 107.013 124.301 107.18 123.474 107.18C122.541 107.18 121.687 106.94 120.914 106.46C120.141 105.98 119.527 105.307 119.074 104.44C118.634 103.56 118.414 102.553 118.414 101.42ZM127.134 101.46C127.134 100.78 127.001 100.2 126.734 99.72C126.467 99.2267 126.107 98.8533 125.654 98.6C125.201 98.3333 124.714 98.2 124.194 98.2C123.674 98.2 123.194 98.3267 122.754 98.58C122.314 98.8333 121.954 99.2067 121.674 99.7C121.407 100.18 121.274 100.753 121.274 101.42C121.274 102.087 121.407 102.673 121.674 103.18C121.954 103.673 122.314 104.053 122.754 104.32C123.207 104.587 123.687 104.72 124.194 104.72C124.714 104.72 125.201 104.593 125.654 104.34C126.107 104.073 126.467 103.7 126.734 103.22C127.001 102.727 127.134 102.14 127.134 101.46ZM147.634 97.36C147.634 98.1067 147.454 98.8067 147.094 99.46C146.748 100.113 146.194 100.64 145.434 101.04C144.688 101.44 143.741 101.64 142.594 101.64H140.254V107H137.454V93.04H142.594C143.674 93.04 144.594 93.2267 145.354 93.6C146.114 93.9733 146.681 94.4867 147.054 95.14C147.441 95.7933 147.634 96.5333 147.634 97.36ZM142.474 99.38C143.248 99.38 143.821 99.2067 144.194 98.86C144.568 98.5 144.754 98 144.754 97.36C144.754 96 143.994 95.32 142.474 95.32H140.254V99.38H142.474ZM152.422 97.64C152.782 97.0533 153.249 96.5933 153.822 96.26C154.409 95.9267 155.076 95.76 155.822 95.76V98.7H155.082C154.202 98.7 153.536 98.9067 153.082 99.32C152.642 99.7333 152.422 100.453 152.422 101.48V107H149.622V95.92H152.422V97.64ZM162.628 107.18C161.561 107.18 160.601 106.947 159.748 106.48C158.895 106 158.221 105.327 157.728 104.46C157.248 103.593 157.008 102.593 157.008 101.46C157.008 100.327 157.255 99.3267 157.748 98.46C158.255 97.5933 158.941 96.9267 159.808 96.46C160.675 95.98 161.641 95.74 162.708 95.74C163.775 95.74 164.741 95.98 165.608 96.46C166.475 96.9267 167.155 97.5933 167.648 98.46C168.155 99.3267 168.408 100.327 168.408 101.46C168.408 102.593 168.148 103.593 167.628 104.46C167.121 105.327 166.428 106 165.548 106.48C164.681 106.947 163.708 107.18 162.628 107.18ZM162.628 104.74C163.135 104.74 163.608 104.62 164.048 104.38C164.501 104.127 164.861 103.753 165.128 103.26C165.395 102.767 165.528 102.167 165.528 101.46C165.528 100.407 165.248 99.6 164.688 99.04C164.141 98.4667 163.468 98.18 162.668 98.18C161.868 98.18 161.195 98.4667 160.648 99.04C160.115 99.6 159.848 100.407 159.848 101.46C159.848 102.513 160.108 103.327 160.628 103.9C161.161 104.46 161.828 104.74 162.628 104.74ZM173.262 97.52C173.622 97.0133 174.115 96.5933 174.742 96.26C175.382 95.9133 176.109 95.74 176.922 95.74C177.869 95.74 178.722 95.9733 179.482 96.44C180.255 96.9067 180.862 97.5733 181.302 98.44C181.755 99.2933 181.982 100.287 181.982 101.42C181.982 102.553 181.755 103.56 181.302 104.44C180.862 105.307 180.255 105.98 179.482 106.46C178.722 106.94 177.869 107.18 176.922 107.18C176.109 107.18 175.389 107.013 174.762 106.68C174.149 106.347 173.649 105.927 173.262 105.42V112.28H170.462V95.92H173.262V97.52ZM179.122 101.42C179.122 100.753 178.982 100.18 178.702 99.7C178.435 99.2067 178.075 98.8333 177.622 98.58C177.182 98.3267 176.702 98.2 176.182 98.2C175.675 98.2 175.195 98.3333 174.742 98.6C174.302 98.8533 173.942 99.2267 173.662 99.72C173.395 100.213 173.262 100.793 173.262 101.46C173.262 102.127 173.395 102.707 173.662 103.2C173.942 103.693 174.302 104.073 174.742 104.34C175.195 104.593 175.675 104.72 176.182 104.72C176.702 104.72 177.182 104.587 177.622 104.32C178.075 104.053 178.435 103.673 178.702 103.18C178.982 102.687 179.122 102.1 179.122 101.42ZM188.937 107.18C187.87 107.18 186.91 106.947 186.057 106.48C185.203 106 184.53 105.327 184.037 104.46C183.557 103.593 183.317 102.593 183.317 101.46C183.317 100.327 183.563 99.3267 184.057 98.46C184.563 97.5933 185.25 96.9267 186.117 96.46C186.983 95.98 187.95 95.74 189.017 95.74C190.083 95.74 191.05 95.98 191.917 96.46C192.783 96.9267 193.463 97.5933 193.957 98.46C194.463 99.3267 194.717 100.327 194.717 101.46C194.717 102.593 194.457 103.593 193.937 104.46C193.43 105.327 192.737 106 191.857 106.48C190.99 106.947 190.017 107.18 188.937 107.18ZM188.937 104.74C189.443 104.74 189.917 104.62 190.357 104.38C190.81 104.127 191.17 103.753 191.437 103.26C191.703 102.767 191.837 102.167 191.837 101.46C191.837 100.407 191.557 99.6 190.997 99.04C190.45 98.4667 189.777 98.18 188.977 98.18C188.177 98.18 187.503 98.4667 186.957 99.04C186.423 99.6 186.157 100.407 186.157 101.46C186.157 102.513 186.417 103.327 186.937 103.9C187.47 104.46 188.137 104.74 188.937 104.74ZM201.011 107.18C200.104 107.18 199.291 107.02 198.571 106.7C197.851 106.367 197.277 105.92 196.851 105.36C196.437 104.8 196.211 104.18 196.171 103.5H198.991C199.044 103.927 199.251 104.28 199.611 104.56C199.984 104.84 200.444 104.98 200.991 104.98C201.524 104.98 201.937 104.873 202.231 104.66C202.537 104.447 202.691 104.173 202.691 103.84C202.691 103.48 202.504 103.213 202.131 103.04C201.771 102.853 201.191 102.653 200.391 102.44C199.564 102.24 198.884 102.033 198.351 101.82C197.831 101.607 197.377 101.28 196.991 100.84C196.617 100.4 196.431 99.8067 196.431 99.06C196.431 98.4467 196.604 97.8867 196.951 97.38C197.311 96.8733 197.817 96.4733 198.471 96.18C199.137 95.8867 199.917 95.74 200.811 95.74C202.131 95.74 203.184 96.0733 203.971 96.74C204.757 97.3933 205.191 98.28 205.271 99.4H202.591C202.551 98.96 202.364 98.6133 202.031 98.36C201.711 98.0933 201.277 97.96 200.731 97.96C200.224 97.96 199.831 98.0533 199.551 98.24C199.284 98.4267 199.151 98.6867 199.151 99.02C199.151 99.3933 199.337 99.68 199.711 99.88C200.084 100.067 200.664 100.26 201.451 100.46C202.251 100.66 202.911 100.867 203.431 101.08C203.951 101.293 204.397 101.627 204.771 102.08C205.157 102.52 205.357 103.107 205.371 103.84C205.371 104.48 205.191 105.053 204.831 105.56C204.484 106.067 203.977 106.467 203.311 106.76C202.657 107.04 201.891 107.18 201.011 107.18ZM206.949 101.42C206.949 100.3 207.169 99.3067 207.609 98.44C208.062 97.5733 208.669 96.9067 209.429 96.44C210.202 95.9733 211.062 95.74 212.009 95.74C212.836 95.74 213.556 95.9067 214.169 96.24C214.796 96.5733 215.296 96.9933 215.669 97.5V95.92H218.489V107H215.669V105.38C215.309 105.9 214.809 106.333 214.169 106.68C213.542 107.013 212.816 107.18 211.989 107.18C211.056 107.18 210.202 106.94 209.429 106.46C208.669 105.98 208.062 105.307 207.609 104.44C207.169 103.56 206.949 102.553 206.949 101.42ZM215.669 101.46C215.669 100.78 215.536 100.2 215.269 99.72C215.002 99.2267 214.642 98.8533 214.189 98.6C213.736 98.3333 213.249 98.2 212.729 98.2C212.209 98.2 211.729 98.3267 211.289 98.58C210.849 98.8333 210.489 99.2067 210.209 99.7C209.942 100.18 209.809 100.753 209.809 101.42C209.809 102.087 209.942 102.673 210.209 103.18C210.489 103.673 210.849 104.053 211.289 104.32C211.742 104.587 212.222 104.72 212.729 104.72C213.249 104.72 213.736 104.593 214.189 104.34C214.642 104.073 215.002 103.7 215.269 103.22C215.536 102.727 215.669 102.14 215.669 101.46ZM224.024 92.2V107H221.224V92.2H224.024Z" fill="white"/>
</svg>
