<svg width="400" height="320" viewBox="0 0 400 320" fill="none" xmlns="http://www.w3.org/2000/svg">
<rect width="400" height="320" rx="10" fill="#D9D9D9"/>
<path d="M229.933 130H169.622C168.172 130 167 131.072 167 132.4V187.6C167 188.928 168.172 190 169.622 190H229.933C231.384 190 232.556 188.928 232.556 187.6V132.4C232.556 131.072 231.384 130 229.933 130ZM210.406 160.66L194.066 172.42C193.46 172.855 192.567 172.465 192.567 171.76V148.247C192.567 147.542 193.46 147.145 194.066 147.588L210.406 159.34C210.515 159.419 210.603 159.519 210.664 159.633C210.725 159.747 210.756 159.873 210.756 160C210.756 160.127 210.725 160.253 210.664 160.367C210.603 160.481 210.515 160.581 210.406 160.66Z" fill="black" fill-opacity="0.05"/>
<path d="M210.406 160.66L194.066 172.42C193.46 172.855 192.567 172.465 192.567 171.76V148.247C192.567 147.542 193.46 147.145 194.066 147.588L210.406 159.34C210.515 159.419 210.603 159.519 210.664 159.633C210.725 159.747 210.756 159.873 210.756 160C210.756 160.127 210.725 160.253 210.664 160.367C210.603 160.481 210.515 160.581 210.406 160.66Z" fill="white"/>
</svg>
