<svg width="147" height="47" viewBox="0 0 147 47" fill="none" xmlns="http://www.w3.org/2000/svg">
<path fill-rule="evenodd" clip-rule="evenodd" d="M64.1798 3.55713C60.6204 3.55713 57.7349 6.44263 57.7349 10.002V11.2555C55.5935 10.696 53.2203 11.2552 51.5422 12.9333C49.0253 15.4502 49.0253 19.5309 51.5422 22.0478L52.4285 22.9341C50.5187 24.0527 49.2361 26.1262 49.2361 28.4993C49.2361 32.0587 52.1216 34.9442 55.681 34.9442H56.9344C56.3749 37.0856 56.9341 39.4588 58.6122 41.1368C61.1291 43.6537 65.2098 43.6537 67.7267 41.1368L70.3703 38.4932C72.7024 36.1611 73.7916 33.0567 73.6379 30.0033L77.7014 34.0667C80.2183 36.5836 84.2991 36.5836 86.8161 34.0667C89.3331 31.5498 89.3331 27.4691 86.8161 24.9523L85.9301 24.0661C87.8391 22.9475 89.1221 20.874 89.1221 18.5009C89.1221 14.9415 86.2361 12.056 82.6771 12.056H81.4236C81.9832 9.91453 81.4239 7.54133 79.7458 5.86323C77.229 3.34633 73.1483 3.34633 70.6314 5.86323L67.9877 8.50693C65.6556 10.839 64.5664 13.9433 64.7201 16.9967L60.6567 12.9333C60.6465 12.9232 60.6364 12.9131 60.6262 12.903V10.002C60.6262 8.03943 62.2172 6.44843 64.1798 6.44843C65.7739 6.44843 67.1228 7.49803 67.5732 8.94383C67.7067 8.79543 67.8449 8.64973 67.9877 8.50693L69.745 6.74953C68.6264 4.83973 66.5529 3.55713 64.1798 3.55713ZM79.7761 14.9473C79.766 14.9574 79.756 14.9676 79.7458 14.9777L75.6825 19.041C78.549 18.8968 81.4602 19.8478 83.7351 21.8943C85.1811 21.4439 86.2311 20.0949 86.2311 18.5009C86.2311 16.5383 84.6401 14.9473 82.6771 14.9473H79.7761ZM58.5818 32.0529C58.5919 32.0427 58.602 32.0325 58.6122 32.0224L62.6755 27.959C59.8091 28.1033 56.8979 27.1522 54.6228 25.1059C53.177 25.5563 52.1273 26.9052 52.1273 28.4993C52.1273 30.4619 53.7184 32.0529 55.681 32.0529H58.5818ZM74.1783 43.4431C71.8051 43.4431 69.7316 42.1604 68.613 40.2506L70.3703 38.4932C70.5132 38.3504 70.6513 38.2047 70.7848 38.0563C71.2352 39.5021 72.5841 40.5518 74.1783 40.5518C76.1409 40.5518 77.7319 38.9608 77.7319 36.9982V34.0972C78.5647 34.9191 79.5657 35.4683 80.6232 35.7446V36.9982C80.6232 40.5576 77.7377 43.4431 74.1783 43.4431ZM77.7014 7.90763C76.3136 6.51993 74.0636 6.51993 72.6758 7.90763L70.0321 10.5513C67.0752 13.5083 66.8113 18.1385 69.2405 21.3941L77.7014 12.9332C79.0892 11.5454 79.0892 9.29543 77.7014 7.90763ZM84.7711 32.0223C86.1591 30.6345 86.1591 28.3845 84.7711 26.9967L82.1277 24.353C79.1708 21.3961 74.5405 21.1322 71.2849 23.5614L79.7458 32.0223C81.1336 33.4101 83.3841 33.4101 84.7711 32.0223ZM65.6822 39.0924C64.2944 40.4802 62.0444 40.4802 60.6566 39.0924C59.2689 37.7046 59.2689 35.4546 60.6566 34.0668L69.1175 25.6059C71.5467 28.8615 71.2828 33.4918 68.3259 36.4487L65.6822 39.0924ZM53.5866 14.9777C52.1989 16.3655 52.1989 18.6155 53.5866 20.0033L56.2303 22.647C59.1873 25.6039 63.8175 25.8678 67.0731 23.4386L58.6122 14.9777C57.2244 13.59 54.9744 13.59 53.5866 14.9777Z" fill="black" fill-opacity="0.8"/>
<path d="M1.53271 16.5898H4.69331V26.411H10.1217V29.0716H1.53271V16.5898Z" fill="black" fill-opacity="0.8"/>
<path d="M15.8603 29.3393C14.8008 29.3393 13.8722 29.1488 13.0746 28.7679C12.277 28.375 11.658 27.8393 11.2175 27.1608C10.789 26.4703 10.5747 25.6787 10.5747 24.7858C10.5747 23.893 10.789 23.1073 11.2175 22.4288C11.658 21.7383 12.277 21.2026 13.0746 20.8217C13.8722 20.4288 14.8008 20.2324 15.8603 20.2324C16.9198 20.2324 17.8483 20.4288 18.6459 20.8217C19.4435 21.2026 20.0566 21.7383 20.4851 22.4288C20.9256 23.1073 21.1458 23.893 21.1458 24.7858C21.1458 25.6787 20.9256 26.4703 20.4851 27.1608C20.0566 27.8393 19.4435 28.375 18.6459 28.7679C17.8483 29.1488 16.9198 29.3393 15.8603 29.3393ZM15.8603 26.8929C16.4912 26.8929 16.9912 26.7084 17.3602 26.3394C17.7412 25.9584 17.9316 25.4406 17.9316 24.7858C17.9316 24.1311 17.7412 23.6192 17.3602 23.2502C16.9912 22.8692 16.4912 22.6788 15.8603 22.6788C15.2293 22.6788 14.7234 22.8692 14.3425 23.2502C13.9734 23.6192 13.7889 24.1311 13.7889 24.7858C13.7889 25.4406 13.9734 25.9584 14.3425 26.3394C14.7234 26.7084 15.2293 26.8929 15.8603 26.8929Z" fill="black" fill-opacity="0.8"/>
<path d="M27.0492 33.1785C26.4778 33.1785 25.9004 33.1249 25.3171 33.0178C24.7457 32.9106 24.2516 32.7678 23.835 32.5892V30.4107C24.7754 30.8154 25.8468 31.0178 27.0492 31.0178C27.9182 31.0178 28.5432 30.8392 28.9241 30.4821C29.317 30.125 29.5134 29.6012 29.5134 28.9107V28.3929C29.1682 28.6905 28.7396 28.9226 28.2277 29.0893C27.7277 29.256 27.192 29.3393 26.6206 29.3393C25.7159 29.3393 24.9183 29.1488 24.2278 28.7679C23.5374 28.3869 22.9957 27.8512 22.6029 27.1608C22.2219 26.4703 22.0315 25.6787 22.0315 24.7858C22.0315 23.8811 22.2219 23.0835 22.6029 22.3931C22.9838 21.7026 23.5195 21.1728 24.21 20.8038C24.9004 20.4229 25.6921 20.2324 26.5849 20.2324C27.8111 20.2324 28.8229 20.6074 29.6205 21.3574V20.5002H32.6562V28.4822C32.6562 29.9702 32.1978 31.125 31.2812 31.9464C30.3765 32.7678 28.9658 33.1785 27.0492 33.1785ZM27.4063 26.9108C27.8944 26.9108 28.3289 26.7858 28.7098 26.5358C29.0908 26.2858 29.3586 25.9525 29.5134 25.5358V24.0359C29.3467 23.6192 29.0729 23.2918 28.692 23.0537C28.311 22.8038 27.8825 22.6788 27.4063 22.6788C26.7635 22.6788 26.2456 22.8692 25.8528 23.2502C25.4599 23.6192 25.2635 24.1251 25.2635 24.768C25.2635 25.4227 25.4599 25.9465 25.8528 26.3394C26.2456 26.7203 26.7635 26.9108 27.4063 26.9108Z" fill="black" fill-opacity="0.8"/>
<path d="M38.739 29.3393C37.6795 29.3393 36.751 29.1488 35.9534 28.7679C35.1558 28.375 34.5367 27.8393 34.0963 27.1608C33.6677 26.4703 33.4534 25.6787 33.4534 24.7858C33.4534 23.893 33.6677 23.1073 34.0963 22.4288C34.5367 21.7383 35.1558 21.2026 35.9534 20.8217C36.751 20.4288 37.6795 20.2324 38.739 20.2324C39.7985 20.2324 40.727 20.4288 41.5246 20.8217C42.3222 21.2026 42.9353 21.7383 43.3639 22.4288C43.8043 23.1073 44.0246 23.893 44.0246 24.7858C44.0246 25.6787 43.8043 26.4703 43.3639 27.1608C42.9353 27.8393 42.3222 28.375 41.5246 28.7679C40.727 29.1488 39.7985 29.3393 38.739 29.3393ZM38.739 26.8929C39.3699 26.8929 39.8699 26.7084 40.239 26.3394C40.6199 25.9584 40.8104 25.4406 40.8104 24.7858C40.8104 24.1311 40.6199 23.6192 40.239 23.2502C39.8699 22.8692 39.3699 22.6788 38.739 22.6788C38.1081 22.6788 37.6021 22.8692 37.2212 23.2502C36.8521 23.6192 36.6676 24.1311 36.6676 24.7858C36.6676 25.4406 36.8521 25.9584 37.2212 26.3394C37.6021 26.7084 38.1081 26.8929 38.739 26.8929Z" fill="black" fill-opacity="0.8"/>
<path d="M94.4319 16.5898H97.5929V29.0716H94.4319V16.5898Z" fill="black" fill-opacity="0.8"/>
<path d="M99.1931 20.5002H102.229V21.3574C103.026 20.6074 104.038 20.2324 105.264 20.2324C106.157 20.2324 106.949 20.4229 107.639 20.8038C108.33 21.1728 108.865 21.7026 109.246 22.3931C109.627 23.0716 109.818 23.8633 109.818 24.768C109.818 25.6608 109.627 26.4584 109.246 27.1608C108.865 27.8512 108.33 28.3869 107.639 28.7679C106.961 29.1488 106.169 29.3393 105.264 29.3393C104.693 29.3393 104.145 29.25 103.622 29.0714C103.11 28.9048 102.681 28.6726 102.336 28.375V32.982H99.1931V20.5002ZM104.443 26.8929C105.086 26.8929 105.604 26.7025 105.996 26.3215C106.389 25.9406 106.586 25.4227 106.586 24.768C106.586 24.1132 106.389 23.6014 105.996 23.2323C105.604 22.8514 105.086 22.6609 104.443 22.6609C103.967 22.6609 103.538 22.7859 103.157 23.0359C102.776 23.274 102.503 23.6014 102.336 24.018V25.5358C102.503 25.9525 102.776 26.2858 103.157 26.5358C103.538 26.7739 103.967 26.8929 104.443 26.8929Z" fill="black" fill-opacity="0.8"/>
<path d="M114.503 29.3393C113.813 29.3393 113.093 29.2679 112.343 29.125C111.593 28.9941 110.997 28.8036 110.557 28.5536V26.2501C111.045 26.5358 111.628 26.7739 112.307 26.9644C112.997 27.1429 113.628 27.2322 114.2 27.2322C114.616 27.2322 114.92 27.2024 115.11 27.1429C115.301 27.0834 115.396 26.9644 115.396 26.7858C115.396 26.6429 115.331 26.5298 115.2 26.4465C115.081 26.3513 114.854 26.256 114.521 26.1608C114.2 26.0537 113.825 25.9406 113.396 25.8215C112.67 25.6072 112.099 25.387 111.682 25.1608C111.265 24.9346 110.956 24.6489 110.753 24.3037C110.551 23.9585 110.45 23.524 110.45 23.0002C110.45 22.0716 110.813 21.3812 111.539 20.9288C112.277 20.4645 113.283 20.2324 114.557 20.2324C115.176 20.2324 115.825 20.2979 116.503 20.4288C117.194 20.5598 117.711 20.7324 118.057 20.9467V23.2145C117.7 22.9764 117.223 22.7799 116.628 22.6252C116.045 22.4704 115.497 22.3931 114.985 22.3931C114.581 22.3931 114.265 22.4347 114.039 22.518C113.813 22.5895 113.7 22.7204 113.7 22.9109C113.7 23.0895 113.813 23.2264 114.039 23.3216C114.265 23.4168 114.67 23.5359 115.253 23.6787C115.634 23.774 115.795 23.8156 115.735 23.8037C116.497 24.0061 117.086 24.2323 117.503 24.4823C117.92 24.7323 118.211 25.0299 118.378 25.3751C118.557 25.7084 118.646 26.137 118.646 26.6608C118.646 27.4822 118.289 28.1369 117.575 28.625C116.872 29.1012 115.848 29.3393 114.503 29.3393Z" fill="black" fill-opacity="0.8"/>
<path d="M123.338 29.3396C122.16 29.3396 121.273 29.0122 120.678 28.3575C120.095 27.7027 119.803 26.8397 119.803 25.7683V20.5005H122.946V25.4111C122.946 26.3992 123.392 26.8932 124.285 26.8932C124.69 26.8932 125.059 26.798 125.392 26.6075C125.725 26.417 125.999 26.1373 126.213 25.7683V20.5005H129.356V29.0717H126.321V28.1432C125.952 28.536 125.505 28.8336 124.981 29.036C124.458 29.2384 123.91 29.3396 123.338 29.3396Z" fill="black" fill-opacity="0.8"/>
<path d="M130.965 20.5002H133.876V21.4288C134.233 21.0479 134.644 20.7562 135.108 20.5538C135.572 20.3395 136.066 20.2324 136.59 20.2324C137.233 20.2324 137.745 20.3276 138.126 20.5181C138.519 20.7086 138.834 20.9943 139.072 21.3752C139.429 21.0181 139.864 20.7383 140.376 20.536C140.888 20.3336 141.406 20.2324 141.929 20.2324C143.06 20.2324 143.864 20.5241 144.34 21.1074C144.816 21.6788 145.054 22.5061 145.054 23.5894V29.0714H142.054V24.0359C142.054 23.5597 141.965 23.2145 141.786 23.0002C141.608 22.7859 141.31 22.6788 140.894 22.6788C140.358 22.6788 139.923 22.8692 139.59 23.2502C139.602 23.4525 139.608 23.7621 139.608 24.1787V29.0714H136.608V23.9109C136.608 23.4704 136.531 23.1549 136.376 22.9645C136.221 22.774 135.947 22.6788 135.555 22.6788C134.947 22.6788 134.424 23.018 133.983 23.6966V29.0714H130.965V20.5002Z" fill="black" fill-opacity="0.8"/>
</svg>
