<svg width="101" height="51" viewBox="0 0 101 51" fill="none" xmlns="http://www.w3.org/2000/svg">
<path d="M2.98514 29.5166H5.81806V43.4073H2.98514V29.5166Z" fill="black" fill-opacity="0.8"/>
<path d="M7.46113 38.6477C7.45926 37.65 7.75341 36.6741 8.30636 35.8436C8.85931 35.0131 9.6462 34.3653 10.5675 33.9822C11.4887 33.5991 12.5029 33.498 13.4817 33.6915C14.4605 33.885 15.3599 34.3644 16.066 35.0693C16.7722 35.7741 17.2534 36.6726 17.4487 37.651C17.6441 38.6294 17.5448 39.6439 17.1634 40.5659C16.782 41.4878 16.1357 42.2759 15.3062 42.8304C14.4768 43.385 13.5015 43.6808 12.5038 43.6808C11.8402 43.6884 11.1819 43.5635 10.5673 43.3133C9.95268 43.0632 9.39419 42.6929 8.92455 42.2241C8.45491 41.7554 8.08356 41.1976 7.83227 40.5834C7.58098 39.9693 7.4548 39.3112 7.46113 38.6477ZM14.6945 38.6477C14.6834 38.217 14.5455 37.7992 14.2981 37.4465C14.0507 37.0937 13.7048 36.8217 13.3036 36.6645C12.9024 36.5073 12.4638 36.472 12.0427 36.5628C11.6215 36.6536 11.2365 36.8667 10.9357 37.1752C10.635 37.4837 10.4319 37.874 10.3518 38.2974C10.2718 38.7207 10.3183 39.1583 10.4857 39.5553C10.6531 39.9523 10.9338 40.2913 11.2927 40.5296C11.6517 40.7679 12.0729 40.8951 12.5038 40.8952C12.7985 40.9035 13.0918 40.8505 13.3651 40.7397C13.6384 40.6289 13.8858 40.4628 14.0917 40.2516C14.2975 40.0404 14.4574 39.7889 14.5611 39.5129C14.6649 39.2368 14.7103 38.9422 14.6945 38.6477Z" fill="black" fill-opacity="0.8"/>
<path d="M28.9345 33.8885V42.9349C28.9345 46.1361 26.4321 47.4865 23.9014 47.4865C23.0115 47.5527 22.1205 47.3727 21.326 46.9663C20.5315 46.5599 19.8643 45.9427 19.3972 45.1824L21.8335 43.7754C22.0268 44.165 22.3327 44.4877 22.7115 44.7015C23.0903 44.9153 23.5246 45.0105 23.9582 44.9746C24.2434 45.0222 24.5357 45.0036 24.8127 44.9202C25.0897 44.8369 25.3438 44.6911 25.5555 44.494C25.7671 44.2969 25.9307 44.0538 26.0336 43.7835C26.1365 43.5132 26.1759 43.2229 26.1488 42.9349V42.0567C25.8158 42.4665 25.3909 42.792 24.9086 43.0069C24.4263 43.2218 23.9001 43.3201 23.3727 43.2938C22.0904 43.2938 20.8606 42.7844 19.9538 41.8777C19.0471 40.971 18.5378 39.7412 18.5378 38.4589C18.5378 37.1766 19.0471 35.9469 19.9538 35.0402C20.8606 34.1335 22.0904 33.6241 23.3727 33.6241C23.8998 33.6 24.4252 33.6993 24.9072 33.914C25.3892 34.1288 25.8143 34.4531 26.1488 34.8611V33.9168L28.9345 33.8885ZM26.1488 38.4589C26.1677 37.9997 26.0487 37.5453 25.8074 37.1541C25.5659 36.763 25.2129 36.453 24.7939 36.2641C24.3749 36.0751 23.9089 36.0158 23.4559 36.0938C23.0029 36.1717 22.5836 36.3834 22.2519 36.7015C21.9201 37.0197 21.6912 37.4298 21.5944 37.8791C21.4975 38.3284 21.5372 38.7965 21.7085 39.223C21.8798 39.6496 22.1748 40.0151 22.5555 40.2727C22.9362 40.5304 23.3851 40.6682 23.8447 40.6686C24.1448 40.6898 24.446 40.648 24.7288 40.5457C25.0117 40.4434 25.2699 40.2831 25.487 40.0749C25.704 39.8667 25.8751 39.6153 25.9891 39.337C26.1031 39.0587 26.1575 38.7596 26.1488 38.4589Z" fill="black" fill-opacity="0.8"/>
<path d="M30.5683 38.6477C30.5664 37.65 30.8606 36.6741 31.4135 35.8436C31.9665 35.0131 32.7534 34.3653 33.6746 33.9822C34.5958 33.5991 35.61 33.498 36.5888 33.6915C37.5676 33.885 38.467 34.3644 39.1732 35.0693C39.8793 35.7741 40.3605 36.6726 40.5559 37.651C40.7512 38.6294 40.6519 39.6439 40.2705 40.5659C39.8891 41.4878 39.2428 42.2759 38.4134 42.8304C37.5839 43.385 36.6086 43.6808 35.6109 43.6808C34.9474 43.6884 34.289 43.5635 33.6744 43.3133C33.0598 43.0632 32.5013 42.6929 32.0317 42.2241C31.5621 41.7554 31.1907 41.1976 30.9394 40.5834C30.6881 39.9693 30.5619 39.3112 30.5683 38.6477ZM37.8017 38.6477C37.7905 38.217 37.6526 37.7992 37.4052 37.4465C37.1578 37.0937 36.8119 36.8217 36.4107 36.6645C36.0096 36.5073 35.571 36.472 35.1498 36.5628C34.7286 36.6536 34.3436 36.8667 34.0428 37.1752C33.7421 37.4837 33.539 37.874 33.4589 38.2974C33.3789 38.7207 33.4255 39.1583 33.5928 39.5553C33.7602 39.9523 34.0409 40.2913 34.3998 40.5296C34.7588 40.7679 35.18 40.8951 35.6109 40.8952C35.9041 40.9008 36.1953 40.846 36.4664 40.734C36.7374 40.622 36.9825 40.4553 37.1863 40.2444C37.3901 40.0336 37.5482 39.7829 37.6509 39.5082C37.7535 39.2335 37.7984 38.9405 37.7828 38.6477H37.8017Z" fill="black" fill-opacity="0.8"/>
<path d="M41.9661 31.3392C41.9661 30.9993 42.0669 30.667 42.2557 30.3844C42.4446 30.1018 42.713 29.8815 43.027 29.7514C43.3411 29.6213 43.6866 29.5873 44.02 29.6536C44.3534 29.7199 44.6596 29.8836 44.9 30.1239C45.1404 30.3643 45.304 30.6705 45.3703 31.0039C45.4367 31.3373 45.4026 31.6829 45.2726 31.9969C45.1425 32.3109 44.9222 32.5794 44.6396 32.7682C44.3569 32.957 44.0247 33.0578 43.6847 33.0578C43.2297 33.0554 42.794 32.8735 42.4722 32.5517C42.1504 32.23 41.9686 31.7943 41.9661 31.3392ZM42.2588 33.8888H45.0917V43.4074H42.2588V33.8888Z" fill="black" fill-opacity="0.8"/>
<path d="M57.4431 38.648C57.4774 39.2772 57.387 39.907 57.177 40.5011C56.9669 41.0952 56.6415 41.6419 56.2193 42.1097C55.7971 42.5775 55.2866 42.9572 54.7171 43.2269C54.1476 43.4966 53.5304 43.651 52.901 43.6812C52.3726 43.7065 51.845 43.6157 51.3556 43.415C50.8661 43.2143 50.4266 42.9087 50.0681 42.5197V47.2412H47.2352V33.8887H50.0681V34.7858C50.4266 34.3968 50.8661 34.0912 51.3556 33.8905C51.845 33.6898 52.3726 33.599 52.901 33.6243C53.5296 33.6545 54.146 33.8086 54.7148 34.0777C55.2837 34.3469 55.7938 34.7257 56.2158 35.1925C56.6379 35.6593 56.9635 36.2048 57.1741 36.7978C57.3848 37.3908 57.4762 38.0196 57.4431 38.648ZM54.6102 38.648C54.599 38.2048 54.458 37.7746 54.2047 37.4107C53.9514 37.0469 53.597 36.7652 53.1853 36.6008C52.7736 36.4363 52.3226 36.3962 51.8884 36.4855C51.4541 36.5747 51.0555 36.7894 50.742 37.1029C50.4285 37.4164 50.2139 37.8149 50.1246 38.2492C50.0354 38.6835 50.0755 39.1344 50.2399 39.5461C50.4044 39.9578 50.686 40.3123 51.0499 40.5655C51.4138 40.8188 51.844 40.9598 52.2872 40.971C52.5965 40.9907 52.9064 40.9439 53.1962 40.8339C53.4859 40.7238 53.7487 40.553 53.967 40.333C54.1852 40.1129 54.3539 39.8487 54.4616 39.5581C54.5692 39.2675 54.6135 38.9572 54.5913 38.648H54.6102Z" fill="black" fill-opacity="0.8"/>
<path d="M66.263 40.5556C66.263 42.7464 64.3744 43.6812 62.2969 43.6812C61.467 43.7547 60.6341 43.5781 59.9054 43.1742C59.1768 42.7703 58.5856 42.1576 58.2081 41.4149L60.6822 40.0079C60.7826 40.3514 60.9976 40.6502 61.2913 40.8546C61.5851 41.059 61.9399 41.1568 62.2969 41.1316C62.9863 41.1316 63.3262 40.9144 63.3262 40.5367C63.3262 39.4885 58.6047 40.0457 58.6047 36.7595C58.6047 34.682 60.3611 33.6338 62.3819 33.6338C63.1276 33.6112 63.8658 33.7883 64.52 34.147C65.1742 34.5056 65.7205 35.0327 66.1025 35.6735L63.619 36.9767C63.5093 36.7273 63.3295 36.5151 63.1015 36.3659C62.8735 36.2167 62.6072 36.1369 62.3347 36.1362C61.8437 36.1362 61.5415 36.3251 61.5415 36.6745C61.5793 37.7604 66.263 37.0333 66.263 40.5556Z" fill="black" fill-opacity="0.8"/>
<path d="M76.6881 33.8887V43.4073H73.8551V42.5197C73.5256 42.9141 73.1074 43.2249 72.6347 43.4268C72.1621 43.6287 71.6483 43.7158 71.1355 43.6812C69.2469 43.6812 67.5755 42.3119 67.5755 39.734V33.8887H70.4084V39.3185C70.3835 39.5499 70.4105 39.7839 70.4873 40.0036C70.5641 40.2233 70.6888 40.4231 70.8525 40.5886C71.0161 40.7541 71.2146 40.881 71.4334 40.9602C71.6522 41.0395 71.886 41.0689 72.1176 41.0466C73.1564 41.0466 73.8835 40.4422 73.8835 39.0919V33.8887H76.6881Z" fill="black" fill-opacity="0.8"/>
<path d="M93.0623 37.5711V43.4069H90.2293V37.8167C90.2293 36.8724 89.7666 36.2491 88.8601 36.2491C87.9536 36.2491 87.3681 36.9196 87.3681 38.0433V43.4069H84.5352V37.8167C84.5352 36.8724 84.0819 36.2491 83.1659 36.2491C82.25 36.2491 81.6834 36.9196 81.6834 38.0433V43.4069H78.8505V33.8884H81.6834V34.7666C81.9795 34.3787 82.3678 34.071 82.8131 33.8715C83.2584 33.6719 83.7465 33.5868 84.233 33.624C84.7216 33.6002 85.2081 33.7035 85.6449 33.9235C86.0818 34.1436 86.4542 34.4731 86.726 34.8799C87.042 34.4546 87.4607 34.1163 87.9429 33.8967C88.4251 33.6771 88.9551 33.5832 89.4833 33.624C91.6364 33.624 93.0623 35.1915 93.0623 37.5711Z" fill="black" fill-opacity="0.8"/>
<path d="M95.4798 33.8321C96.648 33.8321 97.595 32.885 97.595 31.7168C97.595 30.5486 96.648 29.6016 95.4798 29.6016C94.3116 29.6016 93.3645 30.5486 93.3645 31.7168C93.3645 32.885 94.3116 33.8321 95.4798 33.8321Z" fill="black" fill-opacity="0.8"/>
<path d="M35.0443 22.3115C40.5151 22.3115 44.95 17.8765 44.95 12.4057C44.95 6.93496 40.5151 2.5 35.0443 2.5C29.5735 2.5 25.1385 6.93496 25.1385 12.4057C25.1385 17.8765 29.5735 22.3115 35.0443 22.3115Z" fill="black" fill-opacity="0.5"/>
<path d="M57.1881 22.3115C62.6589 22.3115 67.0938 17.8765 67.0938 12.4057C67.0938 6.93496 62.6589 2.5 57.1881 2.5C51.7173 2.5 47.2823 6.93496 47.2823 12.4057C47.2823 17.8765 51.7173 22.3115 57.1881 22.3115Z" fill="black" fill-opacity="0.5"/>
<path d="M22.8061 2.5H3.00403V22.302H22.8061V2.5Z" fill="black" fill-opacity="0.5"/>
</svg>
