<svg width="164" height="43" viewBox="0 0 164 43" fill="none" xmlns="http://www.w3.org/2000/svg">
<path d="M31.01 18.2192C34.148 18.2192 34.854 19.5822 34.854 21.2822C34.854 23.0842 34 24.3752 31.023 24.3752C28.065 24.3752 27.21 23.1592 27.21 21.2822C27.21 19.4352 28.142 18.2192 31.01 18.2192Z" fill="black" fill-opacity="0.8"/>
<path d="M63.804 18.2192C66.942 18.2192 67.648 19.5822 67.648 21.2822C67.648 23.0842 66.793 24.3752 63.817 24.3752C60.86 24.3752 60.004 23.1592 60.004 21.2822C60.004 19.4352 60.936 18.2192 63.804 18.2192Z" fill="black" fill-opacity="0.8"/>
<path fill-rule="evenodd" clip-rule="evenodd" d="M3.22675 38.9999V3.54688H161.805V38.9999H3.22675ZM78.8048 36.9999H159.805V5.54688H78.8048V36.9999ZM31.025 27.3929C36.596 27.3929 38.938 24.9899 38.938 21.2369C38.938 17.4229 36.3 15.1559 31.025 15.1559C25.831 15.1559 23.097 17.6179 23.097 21.2369C23.097 25.3209 25.965 27.3929 31.025 27.3929ZM11.656 15.4259V27.2129H22.9V24.0739H15.724V15.4259H11.656ZM51.522 27.2129L51.417 26.0709C50.0561 27.0421 48.3997 27.5095 46.732 27.3929C44.225 27.3929 42.137 26.6419 40.966 25.1259C40.1936 24.0191 39.8036 22.6905 39.855 21.3419C39.8111 20.0216 40.2146 18.7252 41 17.6629C42.185 16.1919 44.333 15.2159 47.531 15.2159C51.21 15.2159 53.372 16.3419 54.302 18.2339C54.5016 18.6795 54.6189 19.1575 54.648 19.6449H50.756C50.6579 19.3487 50.4754 19.0877 50.231 18.8939C49.4557 18.3799 48.5299 18.1422 47.603 18.2189C47.0593 18.153 46.5077 18.2032 45.9849 18.3663C45.4621 18.5294 44.9798 18.8016 44.57 19.1649C44.1046 19.8019 43.8861 20.5861 43.955 21.3719C43.901 22.1216 44.1019 22.8676 44.525 23.4889C44.9385 23.8742 45.4301 24.166 45.9663 24.3448C46.5026 24.5235 47.0709 24.585 47.633 24.5249C48.7493 24.6157 49.8576 24.2714 50.726 23.5639C50.9125 23.3307 51.0411 23.0565 51.101 22.7639H46.913V20.2309H54.75V27.2129H51.522ZM63.819 27.3929C69.389 27.3929 71.732 24.9899 71.732 21.2369C71.732 17.4229 69.0899 15.1559 63.819 15.1559C58.625 15.1559 55.891 17.6179 55.891 21.2369C55.891 25.3209 58.759 27.3929 63.819 27.3929Z" fill="black" fill-opacity="0.8"/>
<path d="M85.657 27.1679V15.3809H88.557V27.1679H85.657Z" fill="black" fill-opacity="0.8"/>
<path d="M103.449 22.2431C102.714 23.2041 101.449 23.6431 99.666 23.6541C99.29 23.6541 94.305 23.6391 94.305 23.6391V27.1681H91.467V15.3811H99.667C100.324 15.3116 100.989 15.3813 101.617 15.5856C102.246 15.79 102.824 16.1244 103.315 16.5671C103.963 17.4113 104.278 18.4639 104.201 19.5251C104.267 20.4903 104.002 21.4492 103.449 22.2431ZM101.122 18.4001C100.822 17.9501 100.175 17.7001 99.08 17.7001H94.29V21.2881H99.049C100.22 21.2881 100.837 21.0481 101.122 20.5821C101.291 20.2538 101.364 19.8841 101.332 19.5161C101.357 19.1323 101.285 18.7484 101.122 18.4001Z" fill="black" fill-opacity="0.8"/>
<path d="M112.564 27.3482C107.218 27.3482 105.582 25.3482 105.582 23.3692H108.615C108.615 24.3452 109.951 25.0812 112.699 25.0812C115.431 25.0812 116.152 24.6002 116.152 23.8192C116.152 22.9482 115.612 22.6782 113.074 22.3932C112.574 22.3482 111.213 22.1832 110.702 22.1082C107.102 21.7022 105.716 20.6362 105.716 18.7292C105.716 16.7172 107.744 15.2012 112.143 15.2012C116.918 15.2012 118.75 17.0782 118.75 19.0302H115.75C115.75 18.0392 114.624 17.4682 111.966 17.4682C109.233 17.4682 108.648 17.8432 108.648 18.5792C108.648 19.3452 109.248 19.5852 112.148 19.9302C112.809 20.0212 114.28 20.1862 114.685 20.2302C117.749 20.5452 119.13 21.6562 119.13 23.6232C119.125 25.9662 117.023 27.3482 112.564 27.3482Z" fill="black" fill-opacity="0.8"/>
<path d="M127.67 27.3329C123.752 27.3329 121.199 25.7859 121.199 22.5329V15.3809H124.066V22.5729C124.066 24.0599 125.283 25.0499 127.79 25.0499C130.057 25.0499 131.409 24.1199 131.409 22.5729V15.3809H134.247V22.7999C134.247 25.7569 131.874 27.3329 127.67 27.3329Z" fill="black" fill-opacity="0.8"/>
<path d="M149.787 27.1679V19.2999L146.108 27.1679H143.316L139.742 19.2999V27.1679H137.042V15.3809H140.7L144.754 24.3599L148.898 15.3809H152.498V27.1679H149.787Z" fill="black" fill-opacity="0.8"/>
</svg>
