<svg width="138" height="37" viewBox="0 0 138 37" fill="none" xmlns="http://www.w3.org/2000/svg">
<path fill-rule="evenodd" clip-rule="evenodd" d="M19.107 2.45943L19.0876 2.42578H11.0406L1.50757 18.7682L8.05151 30.2182L8.05954 30.2043L10.5334 34.4892L29.4528 34.5738L36.0969 23.1815H36.0527L38.5071 18.9304L29.1207 2.50336L19.107 2.45943ZM25.3318 13.3578H25.382L20.6517 5.14234L27.5638 5.17265L35.421 18.9235L32.9617 23.1833L26.5167 23.1867L28.7638 19.2948L25.3318 13.3578ZM17.4683 5.10184L20.6937 10.6816L16.2279 10.6815L8.58238 23.9404L8.06086 24.8413L4.59773 18.7818L12.5777 5.10184H17.4683ZM14.3672 19.2654L17.7738 13.3576L22.2408 13.3578L25.6732 19.2956L23.4256 23.1884L16.6341 23.1921L14.3672 19.2654ZM9.6036 27.5265L10.8996 25.279L12.8269 21.9499L15.0894 25.869L21.8799 25.8653L21.8689 25.8843L31.4161 25.8956L27.9196 31.8909L12.0824 31.82L9.6036 27.5265Z" fill="black" fill-opacity="0.8"/>
<path d="M87.2459 12.2188C88.1623 12.2188 88.9068 11.4742 88.9068 10.5388C88.9068 9.60338 88.1623 8.87793 87.2459 8.87793C86.3105 8.87793 85.5659 9.60338 85.5659 10.5388C85.5659 11.4742 86.3105 12.2188 87.2459 12.2188ZM85.7568 23.2533H88.7159V13.7079H85.7568V23.2533Z" fill="black" fill-opacity="0.5"/>
<path d="M90.4384 27.8351H93.3403V22.2987C93.8939 23.0242 95.1539 23.5205 96.4712 23.5205C99.3157 23.5205 101.034 21.3442 100.958 18.3278C100.881 15.2541 99.1057 13.4023 96.4521 13.4023C95.0966 13.4023 93.8175 13.9941 93.283 14.8723L93.1303 13.7078H90.4384V27.8351ZM93.3975 18.4805C93.3975 17.0487 94.3521 16.0942 95.7266 16.0942C97.1203 16.0942 97.9985 17.0678 97.9985 18.4805C97.9985 19.8932 97.1203 20.8669 95.7266 20.8669C94.3521 20.8669 93.3975 19.9123 93.3975 18.4805Z" fill="black" fill-opacity="0.5"/>
<path d="M101.271 20.2369C101.347 22.1651 102.875 23.5014 105.28 23.5014C107.59 23.5014 109.194 22.2796 109.194 20.3132C109.194 18.9005 108.354 17.9651 106.788 17.5832L105.089 17.1632C104.478 17.0105 104.096 16.8578 104.096 16.3614C104.096 15.8651 104.497 15.5405 105.089 15.5405C105.757 15.5405 106.196 15.9796 106.177 16.6287H108.831C108.755 14.6432 107.246 13.4023 105.146 13.4023C103.027 13.4023 101.443 14.6623 101.443 16.5714C101.443 17.8505 102.149 18.9005 104.039 19.3969L105.719 19.836C106.215 19.9696 106.425 20.1987 106.425 20.5232C106.425 21.0005 105.986 21.306 105.242 21.306C104.383 21.306 103.925 20.9051 103.925 20.2369H101.271Z" fill="black" fill-opacity="0.5"/>
<path d="M113.694 23.5016C114.858 23.5016 116.023 22.9671 116.615 22.1844L116.806 23.2534H119.574V13.708H116.634V18.6716C116.634 20.1034 116.214 20.8862 114.858 20.8862C113.808 20.8862 113.121 20.4089 113.121 18.6334V13.708H110.181V19.7025C110.181 21.9744 111.441 23.5016 113.694 23.5016Z" fill="black" fill-opacity="0.5"/>
<path d="M124.236 23.2533V18.0415C124.236 16.4379 125.095 15.9797 125.935 15.9797C126.871 15.9797 127.482 16.5524 127.482 17.7361V23.2533H130.383V18.0415C130.383 16.4188 131.223 15.9606 132.063 15.9606C132.999 15.9606 133.629 16.5333 133.629 17.7361V23.2533H136.492V17.0106C136.492 14.8342 135.347 13.3833 132.884 13.3833C131.51 13.3833 130.383 14.0515 129.887 15.0824C129.314 14.0515 128.322 13.3833 126.737 13.3833C125.687 13.3833 124.713 13.8606 124.141 14.6242L124.026 13.7079H121.277V23.2533H124.236Z" fill="black" fill-opacity="0.5"/>
<path d="M46.9241 9.12744H43.7932V23.2548H52.4605V20.4866H46.9241V9.12744Z" fill="black" fill-opacity="0.8"/>
<path d="M52.7595 18.463C52.7595 21.4793 54.7832 23.4839 57.8377 23.4839C60.8732 23.4839 62.8968 21.4793 62.8968 18.463C62.8968 15.4466 60.8732 13.4229 57.8377 13.4229C54.7832 13.4229 52.7595 15.4466 52.7595 18.463ZM55.7186 18.4439C55.7186 17.012 56.5586 16.0575 57.8377 16.0575C59.0977 16.0575 59.9377 17.012 59.9377 18.4439C59.9377 19.8948 59.0977 20.8493 57.8377 20.8493C56.5586 20.8493 55.7186 19.8948 55.7186 18.4439Z" fill="black" fill-opacity="0.8"/>
<path d="M63.3697 18.3102C63.3697 21.193 65.2407 23.1402 67.8943 23.1402C69.1734 23.1402 70.2807 22.6821 70.8343 21.9375V23.2548C70.8343 24.5721 70.0134 25.4502 68.5625 25.4502C67.2643 25.4502 66.367 24.8393 66.3097 23.7511H63.3316C63.5988 26.3666 65.6225 28.123 68.3907 28.123C71.6552 28.123 73.717 26.0039 73.717 22.6439V13.7093H71.0634L70.9107 14.683C70.3761 13.9002 69.2498 13.3848 67.9516 13.3848C65.2788 13.3848 63.3697 15.3893 63.3697 18.3102ZM66.3479 18.2339C66.3479 16.8593 67.2643 15.943 68.4288 15.943C69.7843 15.943 70.777 16.8402 70.777 18.2339C70.777 19.6275 69.8034 20.582 68.4479 20.582C67.2834 20.582 66.3479 19.6275 66.3479 18.2339Z" fill="black" fill-opacity="0.8"/>
<path d="M74.5739 18.463C74.5739 21.4793 76.5975 23.4839 79.6521 23.4839C82.6875 23.4839 84.7112 21.4793 84.7112 18.463C84.7112 15.4466 82.6875 13.4229 79.6521 13.4229C76.5975 13.4229 74.5739 15.4466 74.5739 18.463ZM77.533 18.4439C77.533 17.012 78.373 16.0575 79.6521 16.0575C80.9121 16.0575 81.7521 17.012 81.7521 18.4439C81.7521 19.8948 80.9121 20.8493 79.6521 20.8493C78.373 20.8493 77.533 19.8948 77.533 18.4439Z" fill="black" fill-opacity="0.8"/>
</svg>
