<svg width="155" height="35" viewBox="0 0 155 35" fill="none" xmlns="http://www.w3.org/2000/svg">
<path d="M45.7094 23.1914C45.7094 23.9336 45.557 24.5039 45.2523 24.9023C44.9555 25.3008 44.4594 25.5 43.7641 25.5C43.1078 25.5 42.643 25.3008 42.3695 24.9023C42.1039 24.5039 41.9711 23.9336 41.9711 23.1914V10.8047C41.9711 10.0625 42.1039 9.49219 42.3695 9.09375C42.643 8.69531 43.1078 8.49609 43.7641 8.49609C44.4594 8.49609 44.9555 8.69531 45.2523 9.09375C45.557 9.49219 45.7094 10.0625 45.7094 10.8047V23.1914Z" fill="black" fill-opacity="0.8"/>
<path d="M46.8442 19.5938C46.8442 18.7656 46.977 17.9844 47.2427 17.25C47.5161 16.5078 47.9223 15.8594 48.4614 15.3047C49.0083 14.75 49.688 14.3086 50.5005 13.9805C51.3208 13.6523 52.2817 13.4883 53.3833 13.4883C54.438 13.4883 55.3716 13.6406 56.1841 13.9453C56.9966 14.25 57.6802 14.6758 58.2348 15.2227C58.7895 15.7617 59.2114 16.4062 59.5005 17.1562C59.7895 17.8984 59.9341 18.7109 59.9341 19.5938C59.9341 20.4141 59.7973 21.1914 59.5239 21.9258C59.2505 22.6523 58.8403 23.293 58.2934 23.8477C57.7466 24.3945 57.063 24.832 56.2427 25.1602C55.4223 25.4805 54.4692 25.6406 53.3833 25.6406C52.313 25.6406 51.3677 25.4883 50.5473 25.1836C49.7348 24.8711 49.0513 24.4453 48.4966 23.9062C47.9497 23.3594 47.5356 22.7188 47.2544 21.9844C46.9809 21.2422 46.8442 20.4453 46.8442 19.5938ZM50.7466 19.5938C50.7466 20.1094 50.7934 20.6016 50.8872 21.0703C50.9809 21.5312 51.1294 21.9375 51.3325 22.2891C51.5434 22.6406 51.8169 22.9219 52.1528 23.1328C52.4888 23.3359 52.8989 23.4375 53.3833 23.4375C53.8286 23.4375 54.2153 23.3438 54.5434 23.1562C54.8794 22.9688 55.1528 22.707 55.3638 22.3711C55.5825 22.0352 55.7466 21.6328 55.8559 21.1641C55.9653 20.6875 56.02 20.1641 56.02 19.5938C56.02 19.0781 55.9692 18.5898 55.8677 18.1289C55.7739 17.6602 55.6216 17.25 55.4106 16.8984C55.1997 16.5391 54.9263 16.2578 54.5903 16.0547C54.2622 15.8438 53.8598 15.7383 53.3833 15.7383C52.9067 15.7383 52.5005 15.8398 52.1645 16.043C51.8286 16.2461 51.5552 16.5234 51.3442 16.875C51.1333 17.2266 50.9809 17.6367 50.8872 18.1055C50.7934 18.5742 50.7466 19.0703 50.7466 19.5938Z" fill="black" fill-opacity="0.8"/>
<path d="M69.5533 23.2383C69.3423 23.6289 69.0845 23.9609 68.7798 24.2344C68.483 24.5078 68.1509 24.7344 67.7838 24.9141C67.4244 25.0859 67.0377 25.2148 66.6236 25.3008C66.2173 25.3789 65.7994 25.418 65.3697 25.418C64.6509 25.418 63.9947 25.2891 63.4009 25.0312C62.8072 24.7734 62.2955 24.4023 61.8658 23.918C61.4439 23.4258 61.1158 22.8242 60.8814 22.1133C60.647 21.4023 60.5298 20.5898 60.5298 19.6758C60.5298 18.8164 60.6392 18.0117 60.858 17.2617C61.0767 16.5117 61.3931 15.8594 61.8072 15.3047C62.2291 14.75 62.7447 14.3125 63.3541 13.9922C63.9634 13.6719 64.6588 13.5117 65.44 13.5117C66.3306 13.5117 67.1197 13.6836 67.8072 14.0273C68.5025 14.3711 69.1002 14.9336 69.6002 15.7148V15.4102C69.6002 14.8477 69.7525 14.4258 70.0572 14.1445C70.3697 13.8555 70.7994 13.7109 71.3463 13.7109C71.6744 13.7109 71.9517 13.7656 72.1783 13.875C72.4048 13.9766 72.5845 14.1328 72.7173 14.3438C72.8502 14.5469 72.9439 14.8008 72.9986 15.1055C73.0611 15.4023 73.0923 15.7422 73.0923 16.125V23.9766C73.0923 24.9297 72.9713 25.7812 72.7291 26.5312C72.4947 27.2812 72.1275 27.9141 71.6275 28.4297C71.1275 28.9453 70.4869 29.3359 69.7056 29.6016C68.9244 29.875 67.9947 30.0117 66.9166 30.0117C66.1588 30.0117 65.4869 29.9766 64.9009 29.9062C64.3228 29.8438 63.8228 29.7461 63.4009 29.6133C62.9791 29.4648 62.6588 29.3008 62.44 29.1211C62.2291 28.9414 62.1236 28.707 62.1236 28.418C62.1236 28.2539 62.147 28.0977 62.1939 27.9492C62.2408 27.8008 62.3111 27.668 62.4048 27.5508C62.5064 27.4414 62.6353 27.3516 62.7916 27.2812C62.9556 27.2188 63.1548 27.1875 63.3892 27.1875C63.6392 27.1875 63.8892 27.2031 64.1392 27.2344C64.397 27.2656 64.6627 27.2969 64.9361 27.3281C65.2173 27.3672 65.5103 27.4023 65.815 27.4336C66.1275 27.4648 66.4634 27.4805 66.8228 27.4805C67.2525 27.4805 67.6353 27.4375 67.9713 27.3516C68.3072 27.2656 68.5923 27.1133 68.8267 26.8945C69.0611 26.6758 69.2408 26.3828 69.3658 26.0156C69.4908 25.6562 69.5533 25.1953 69.5533 24.6328V23.2383ZM69.5533 19.5938C69.5533 19.0234 69.5103 18.5039 69.4244 18.0352C69.3463 17.5664 69.2095 17.168 69.0142 16.8398C68.8189 16.5039 68.5572 16.2461 68.2291 16.0664C67.9009 15.8789 67.4908 15.7852 66.9986 15.7852C66.5142 15.7852 66.1119 15.8828 65.7916 16.0781C65.4791 16.2734 65.2291 16.543 65.0416 16.8867C64.8541 17.2305 64.7213 17.6328 64.6431 18.0938C64.5728 18.5547 64.5377 19.0469 64.5377 19.5703C64.5377 20.7656 64.7486 21.6641 65.1705 22.2656C65.5923 22.8672 66.2056 23.168 67.0103 23.168C67.3853 23.1602 67.7252 23.0898 68.0298 22.957C68.3423 22.8164 68.6119 22.6016 68.8384 22.3125C69.065 22.0234 69.2408 21.6562 69.3658 21.2109C69.4908 20.7656 69.5533 20.2266 69.5533 19.5938Z" fill="black" fill-opacity="0.8"/>
<path d="M74.1686 19.5938C74.1686 18.7656 74.3014 17.9844 74.567 17.25C74.8405 16.5078 75.2467 15.8594 75.7858 15.3047C76.3327 14.75 77.0123 14.3086 77.8248 13.9805C78.6452 13.6523 79.6061 13.4883 80.7077 13.4883C81.7623 13.4883 82.6959 13.6406 83.5084 13.9453C84.3209 14.25 85.0045 14.6758 85.5592 15.2227C86.1139 15.7617 86.5358 16.4062 86.8248 17.1562C87.1139 17.8984 87.2584 18.7109 87.2584 19.5938C87.2584 20.4141 87.1217 21.1914 86.8483 21.9258C86.5748 22.6523 86.1647 23.293 85.6178 23.8477C85.0709 24.3945 84.3873 24.832 83.567 25.1602C82.7467 25.4805 81.7936 25.6406 80.7077 25.6406C79.6373 25.6406 78.692 25.4883 77.8717 25.1836C77.0592 24.8711 76.3756 24.4453 75.8209 23.9062C75.2741 23.3594 74.86 22.7188 74.5787 21.9844C74.3053 21.2422 74.1686 20.4453 74.1686 19.5938ZM78.0709 19.5938C78.0709 20.1094 78.1178 20.6016 78.2116 21.0703C78.3053 21.5312 78.4537 21.9375 78.6569 22.2891C78.8678 22.6406 79.1412 22.9219 79.4772 23.1328C79.8131 23.3359 80.2233 23.4375 80.7077 23.4375C81.153 23.4375 81.5397 23.3438 81.8678 23.1562C82.2037 22.9688 82.4772 22.707 82.6881 22.3711C82.9069 22.0352 83.0709 21.6328 83.1803 21.1641C83.2897 20.6875 83.3444 20.1641 83.3444 19.5938C83.3444 19.0781 83.2936 18.5898 83.192 18.1289C83.0983 17.6602 82.9459 17.25 82.735 16.8984C82.5241 16.5391 82.2506 16.2578 81.9147 16.0547C81.5866 15.8438 81.1842 15.7383 80.7077 15.7383C80.2311 15.7383 79.8248 15.8398 79.4889 16.043C79.153 16.2461 78.8795 16.5234 78.6686 16.875C78.4577 17.2266 78.3053 17.6367 78.2116 18.1055C78.1178 18.5742 78.0709 19.0703 78.0709 19.5938Z" fill="black" fill-opacity="0.8"/>
<path d="M92.2839 9.53906C92.2839 9.79688 92.2253 10.0273 92.1081 10.2305C91.9909 10.4258 91.8386 10.5898 91.6511 10.7227C91.4636 10.8555 91.2448 10.957 90.9948 11.0273C90.7527 11.0898 90.5027 11.1211 90.2448 11.1211C89.9714 11.1211 89.7097 11.0859 89.4597 11.0156C89.2175 10.9453 89.0027 10.8438 88.8152 10.7109C88.6277 10.5703 88.4792 10.4023 88.3698 10.207C88.2605 10.0117 88.2058 9.78906 88.2058 9.53906C88.2058 9.3125 88.2566 9.10547 88.3581 8.91797C88.4675 8.72266 88.612 8.55469 88.7917 8.41406C88.9714 8.27344 89.1863 8.16406 89.4363 8.08594C89.6863 8.00781 89.9597 7.96875 90.2566 7.96875C90.5144 7.96875 90.7644 8.00391 91.0066 8.07422C91.2566 8.14453 91.4753 8.24609 91.6628 8.37891C91.8503 8.51172 91.9988 8.67578 92.1081 8.87109C92.2253 9.06641 92.2839 9.28906 92.2839 9.53906ZM92.1081 23.1914C92.1081 23.9336 91.9558 24.5039 91.6511 24.9023C91.3542 25.3008 90.8581 25.5 90.1628 25.5C89.5066 25.5 89.0417 25.3008 88.7683 24.9023C88.5027 24.5039 88.3698 23.9336 88.3698 23.1914V16.0195C88.3698 15.2773 88.5027 14.707 88.7683 14.3086C89.0417 13.9102 89.5066 13.7109 90.1628 13.7109C90.8581 13.7109 91.3542 13.9102 91.6511 14.3086C91.9558 14.707 92.1081 15.2773 92.1081 16.0195V23.1914Z" fill="black" fill-opacity="0.8"/>
<path d="M97.4969 19.5703C97.4969 20.0938 97.5359 20.582 97.6141 21.0352C97.7 21.4883 97.8406 21.8867 98.0359 22.2305C98.2391 22.5664 98.5047 22.832 98.8328 23.0273C99.1687 23.2227 99.5828 23.3203 100.075 23.3203C100.528 23.3203 100.907 23.2266 101.212 23.0391C101.524 22.8438 101.774 22.5781 101.962 22.2422C102.149 21.8984 102.282 21.4961 102.36 21.0352C102.446 20.5742 102.489 20.0742 102.489 19.5352C102.489 19.1055 102.458 18.668 102.395 18.2227C102.333 17.7695 102.216 17.3594 102.044 16.9922C101.872 16.625 101.634 16.3242 101.329 16.0898C101.024 15.8555 100.626 15.7383 100.134 15.7383C99.6414 15.7383 99.2234 15.8164 98.8797 15.9727C98.5437 16.1289 98.2703 16.3672 98.0594 16.6875C97.8562 17.0078 97.7117 17.4102 97.6258 17.8945C97.5398 18.3711 97.4969 18.9297 97.4969 19.5703ZM97.4852 16.0195C97.6805 15.6055 97.9305 15.2422 98.2352 14.9297C98.5398 14.6172 98.8758 14.3555 99.243 14.1445C99.6102 13.9336 99.993 13.7773 100.391 13.6758C100.798 13.5664 101.2 13.5117 101.598 13.5117C102.317 13.5117 102.966 13.6719 103.544 13.9922C104.122 14.3125 104.614 14.75 105.02 15.3047C105.434 15.8516 105.751 16.5 105.97 17.25C106.188 17.9922 106.298 18.7891 106.298 19.6406C106.298 20.5234 106.18 21.332 105.946 22.0664C105.72 22.8008 105.395 23.4336 104.973 23.9648C104.559 24.4883 104.059 24.8984 103.473 25.1953C102.895 25.4922 102.251 25.6406 101.54 25.6406C100.665 25.6406 99.8836 25.4375 99.1961 25.0312C98.5086 24.625 97.9383 24.0547 97.4852 23.3203V27.5391C97.4852 28.2812 97.3328 28.8516 97.0281 29.25C96.7312 29.6484 96.2352 29.8477 95.5398 29.8477C94.8836 29.8477 94.4187 29.6484 94.1453 29.25C93.8797 28.8516 93.7469 28.2812 93.7469 27.5391V16.0195C93.7469 15.2773 93.8797 14.707 94.1453 14.3086C94.4187 13.9102 94.8836 13.7109 95.5398 13.7109C96.2352 13.7109 96.7312 13.9102 97.0281 14.3086C97.3328 14.707 97.4852 15.2773 97.4852 16.0195Z" fill="black" fill-opacity="0.8"/>
<path d="M110.421 16.8516C110.421 17.1562 110.554 17.3945 110.819 17.5664C111.085 17.7305 111.452 17.8672 111.921 17.9766C112.366 18.0781 112.823 18.1758 113.292 18.2695C113.761 18.3633 114.218 18.4727 114.663 18.5977C115.108 18.7148 115.526 18.8555 115.917 19.0195C116.307 19.1836 116.651 19.3906 116.948 19.6406C117.245 19.8828 117.479 20.1797 117.651 20.5312C117.823 20.875 117.909 21.2891 117.909 21.7734C117.909 22.3828 117.784 22.9258 117.534 23.4023C117.284 23.8711 116.929 24.2695 116.468 24.5977C116.015 24.9258 115.472 25.1797 114.839 25.3594C114.206 25.5391 113.507 25.6328 112.741 25.6406C112.015 25.6406 111.315 25.5938 110.643 25.5C109.972 25.4141 109.374 25.2773 108.85 25.0898C108.335 24.9023 107.921 24.6719 107.608 24.3984C107.296 24.1172 107.14 23.7891 107.14 23.4141C107.14 23.0859 107.245 22.832 107.456 22.6523C107.667 22.4727 107.936 22.3828 108.265 22.3828C108.39 22.3828 108.538 22.4062 108.71 22.4531C108.882 22.5 109.069 22.5586 109.272 22.6289C109.475 22.6992 109.69 22.7773 109.917 22.8633C110.151 22.9414 110.393 23.0117 110.643 23.0742C110.956 23.1602 111.276 23.2305 111.604 23.2852C111.94 23.332 112.284 23.3555 112.636 23.3555C112.854 23.3555 113.069 23.3359 113.28 23.2969C113.491 23.25 113.679 23.1836 113.843 23.0977C114.015 23.0039 114.155 22.8867 114.265 22.7461C114.374 22.6055 114.44 22.4336 114.464 22.2305C114.487 22.1836 114.507 22.1367 114.522 22.0898C114.538 22.043 114.546 21.9883 114.546 21.9258C114.546 21.707 114.444 21.5117 114.241 21.3398C114.046 21.168 113.768 21.0312 113.409 20.9297C112.807 20.7891 112.233 20.6602 111.686 20.543C111.14 20.4258 110.632 20.3008 110.163 20.168C109.702 20.0352 109.28 19.8828 108.897 19.7109C108.522 19.5391 108.202 19.3281 107.936 19.0781C107.679 18.8281 107.475 18.5273 107.327 18.1758C107.186 17.8242 107.116 17.3984 107.116 16.8984C107.116 16.3594 107.237 15.8789 107.479 15.457C107.729 15.0273 108.085 14.668 108.546 14.3789C109.007 14.0898 109.565 13.8711 110.222 13.7227C110.878 13.5664 111.62 13.4883 112.448 13.4883C113.932 13.4883 115.061 13.668 115.835 14.0273C116.616 14.3789 117.007 14.8398 117.007 15.4102C117.007 15.7305 116.901 15.9766 116.69 16.1484C116.479 16.3125 116.225 16.3945 115.929 16.3945C115.772 16.3945 115.608 16.3672 115.436 16.3125C115.272 16.25 115.073 16.1836 114.839 16.1133C114.604 16.0352 114.323 15.9688 113.995 15.9141C113.675 15.8516 113.276 15.8203 112.8 15.8203C112.44 15.8203 112.112 15.8359 111.815 15.8672C111.526 15.8984 111.276 15.9531 111.065 16.0312C110.862 16.1094 110.702 16.2148 110.585 16.3477C110.475 16.4805 110.421 16.6484 110.421 16.8516Z" fill="black" fill-opacity="0.8"/>
<path d="M122.665 21.1523C122.665 21.5195 122.712 21.8398 122.806 22.1133C122.907 22.3867 123.044 22.6172 123.216 22.8047C123.388 22.9844 123.587 23.1211 123.813 23.2148C124.048 23.3008 124.298 23.3438 124.563 23.3438C124.876 23.3438 125.177 23.2969 125.466 23.2031C125.755 23.1094 126.009 22.9648 126.228 22.7695C126.454 22.5742 126.634 22.3281 126.767 22.0312C126.899 21.7344 126.966 21.3867 126.966 20.9883V16.0195C126.966 15.2773 127.099 14.707 127.364 14.3086C127.638 13.9102 128.103 13.7109 128.759 13.7109C129.454 13.7109 129.95 13.9102 130.247 14.3086C130.552 14.707 130.704 15.2773 130.704 16.0195V23.1914C130.704 23.9336 130.552 24.5039 130.247 24.9023C129.95 25.3008 129.454 25.5 128.759 25.5C128.103 25.5 127.638 25.3008 127.364 24.9023C127.099 24.5039 126.966 23.9336 126.966 23.1914C126.802 23.5508 126.587 23.8789 126.321 24.1758C126.063 24.4727 125.759 24.7305 125.407 24.9492C125.063 25.1602 124.681 25.3242 124.259 25.4414C123.845 25.5586 123.395 25.6172 122.911 25.6172C122.388 25.6172 121.884 25.5273 121.399 25.3477C120.923 25.1602 120.501 24.8867 120.134 24.5273C119.767 24.1602 119.474 23.707 119.255 23.168C119.036 22.6289 118.927 22 118.927 21.2812V16.0195C118.927 15.2773 119.06 14.707 119.325 14.3086C119.599 13.9102 120.063 13.7109 120.72 13.7109C121.415 13.7109 121.911 13.9102 122.208 14.3086C122.513 14.707 122.665 15.2773 122.665 16.0195V21.1523Z" fill="black" fill-opacity="0.8"/>
<path d="M132.401 16.0195C132.401 15.2773 132.534 14.707 132.8 14.3086C133.073 13.9102 133.538 13.7109 134.194 13.7109C134.89 13.7109 135.386 13.9102 135.683 14.3086C135.987 14.707 136.14 15.2773 136.14 16.0195C136.296 15.6445 136.507 15.3047 136.773 15C137.046 14.6875 137.355 14.4219 137.698 14.2031C138.05 13.9844 138.429 13.8164 138.835 13.6992C139.241 13.5742 139.663 13.5117 140.101 13.5117C140.507 13.5117 140.905 13.5664 141.296 13.6758C141.694 13.7773 142.062 13.9453 142.398 14.1797C142.741 14.4062 143.042 14.6953 143.3 15.0469C143.558 15.3984 143.757 15.8203 143.898 16.3125C144.14 15.7891 144.425 15.3477 144.753 14.9883C145.081 14.6289 145.437 14.3398 145.819 14.1211C146.202 13.9023 146.601 13.7461 147.015 13.6523C147.437 13.5586 147.858 13.5117 148.28 13.5117C148.78 13.5117 149.257 13.6016 149.71 13.7812C150.171 13.9609 150.573 14.2344 150.917 14.6016C151.269 14.9609 151.546 15.418 151.749 15.9727C151.96 16.5195 152.065 17.1602 152.065 17.8945V23.1914C152.065 23.9336 151.913 24.5039 151.608 24.9023C151.312 25.3008 150.815 25.5 150.12 25.5C149.464 25.5 148.999 25.3008 148.726 24.9023C148.46 24.5039 148.327 23.9336 148.327 23.1914V18.0586C148.327 17.707 148.28 17.3945 148.187 17.1211C148.093 16.8398 147.96 16.6055 147.788 16.418C147.624 16.2227 147.429 16.0781 147.202 15.9844C146.976 15.8828 146.733 15.832 146.476 15.832C146.155 15.832 145.851 15.8828 145.562 15.9844C145.273 16.0859 145.019 16.2422 144.8 16.4531C144.589 16.6641 144.417 16.9336 144.284 17.2617C144.159 17.5898 144.097 17.9844 144.097 18.4453V23.1914C144.097 23.9336 143.944 24.5039 143.64 24.9023C143.343 25.3008 142.847 25.5 142.151 25.5C141.495 25.5 141.03 25.3008 140.757 24.9023C140.491 24.5039 140.358 23.9336 140.358 23.1914V18.2812C140.358 17.4766 140.19 16.8672 139.855 16.4531C139.526 16.0391 139.077 15.832 138.507 15.832C138.171 15.832 137.858 15.8867 137.569 15.9961C137.28 16.1055 137.03 16.2656 136.819 16.4766C136.608 16.6875 136.44 16.9492 136.315 17.2617C136.198 17.5742 136.14 17.9336 136.14 18.3398V23.1914C136.14 23.9336 135.987 24.5039 135.683 24.9023C135.386 25.3008 134.89 25.5 134.194 25.5C133.538 25.5 133.073 25.3008 132.8 24.9023C132.534 24.5039 132.401 23.9336 132.401 23.1914V16.0195Z" fill="black" fill-opacity="0.8"/>
<path d="M17.6 23.5C14.2863 23.5 11.6 20.8137 11.6 17.5C11.6 14.1863 14.2863 11.5 17.6 11.5C20.9137 11.5 23.6 14.1863 23.6 17.5C23.6 20.8137 20.9137 23.5 17.6 23.5Z" fill="black" fill-opacity="0.5"/>
<path d="M5.97623 19.5497C4.23748 19.8563 3.04566 21.5359 3.71311 23.1705C4.64495 25.4525 6.13158 27.4857 8.05889 29.0745C10.8148 31.3462 14.2908 32.5601 17.8618 32.4978C21.4328 32.4355 24.8644 31.101 27.5394 28.7344C29.41 27.0794 30.8248 24.9955 31.6765 22.6824C32.2865 21.0255 31.0367 19.3885 29.2883 19.1428C27.54 18.8971 25.9702 20.1697 25.1066 21.7097C24.6385 22.5444 24.0308 23.3017 23.3028 23.9458C21.768 25.3037 19.7991 26.0693 17.7503 26.1051C15.7014 26.1408 13.707 25.4444 12.1258 24.1409C11.3757 23.5226 10.742 22.787 10.245 21.9691C9.32823 20.4602 7.71498 19.2431 5.97623 19.5497Z" fill="black" fill-opacity="0.5"/>
<path d="M32.484 19.3745C32.5606 18.7604 32.6 18.1348 32.6 17.5C32.6 9.21573 25.8843 2.5 17.6 2.5C9.31574 2.5 2.60001 9.21573 2.60001 17.5C2.60001 18.3147 2.66496 19.1142 2.78997 19.8937C3.47895 18.9505 4.55427 18.2772 5.71577 18.0724C6.97246 17.8508 8.11459 18.1556 9.08028 18.7253C9.02323 18.3251 8.99371 17.916 8.99371 17.5C8.99371 12.7469 12.8469 8.8937 17.6 8.8937C22.3531 8.8937 26.2063 12.7469 26.2063 17.5C26.2063 17.8134 26.1895 18.1229 26.1569 18.4276C27.1022 17.8243 28.2332 17.4796 29.4971 17.6573C30.6647 17.8214 31.7625 18.4564 32.484 19.3745Z" fill="black" fill-opacity="0.7"/>
</svg>
