<svg width="123" height="18" viewBox="0 0 123 18" fill="none" xmlns="http://www.w3.org/2000/svg">
<path d="M15.288 17.588L15.264 7.508L10.32 15.812H8.568L3.648 7.724V17.588H0V0.787999H3.216L9.504 11.228L15.696 0.787999H18.888L18.936 17.588H15.288Z" fill="black"/>
<path d="M30.3859 17.876C27.9859 17.876 26.1139 17.212 24.7699 15.884C23.4419 14.556 22.7779 12.66 22.7779 10.196V0.787999H26.6659V10.052C26.6659 13.06 27.9139 14.564 30.4099 14.564C31.6259 14.564 32.5539 14.204 33.1939 13.484C33.8339 12.748 34.1539 11.604 34.1539 10.052V0.787999H37.9939V10.196C37.9939 12.66 37.3219 14.556 35.9779 15.884C34.6499 17.212 32.7859 17.876 30.3859 17.876Z" fill="black"/>
<path d="M47.3559 17.876C46.0279 17.876 44.7399 17.7 43.4919 17.348C42.2599 16.98 41.2679 16.508 40.5159 15.932L41.8359 13.004C42.5559 13.532 43.4119 13.956 44.4039 14.276C45.3959 14.596 46.3879 14.756 47.3799 14.756C48.4839 14.756 49.2999 14.596 49.8279 14.276C50.3559 13.94 50.6199 13.5 50.6199 12.956C50.6199 12.556 50.4599 12.228 50.1399 11.972C49.8359 11.7 49.4359 11.484 48.9399 11.324C48.4599 11.164 47.8039 10.988 46.9719 10.796C45.6919 10.492 44.6439 10.188 43.8279 9.884C43.0119 9.58 42.3079 9.092 41.7159 8.42C41.1399 7.748 40.8519 6.852 40.8519 5.732C40.8519 4.756 41.1159 3.876 41.6439 3.092C42.1719 2.292 42.9639 1.66 44.0199 1.196C45.0919 0.732 46.3959 0.5 47.9319 0.5C49.0039 0.5 50.0519 0.628 51.0759 0.883999C52.0999 1.14 52.9959 1.508 53.7639 1.988L52.5639 4.94C51.0119 4.06 49.4599 3.62 47.9079 3.62C46.8199 3.62 46.0119 3.796 45.4839 4.148C44.9719 4.5 44.7159 4.964 44.7159 5.54C44.7159 6.116 45.0119 6.548 45.6039 6.836C46.2119 7.108 47.1319 7.38 48.3639 7.652C49.6439 7.956 50.6919 8.26 51.5079 8.564C52.3239 8.868 53.0199 9.348 53.5959 10.004C54.1879 10.66 54.4839 11.548 54.4839 12.668C54.4839 13.628 54.2119 14.508 53.6679 15.308C53.1399 16.092 52.3399 16.716 51.2679 17.18C50.1959 17.644 48.8919 17.876 47.3559 17.876Z" fill="black"/>
<path d="M65.1806 17.876C63.4686 17.876 61.9166 17.508 60.5246 16.772C59.1486 16.02 58.0606 14.988 57.2606 13.676C56.4766 12.348 56.0846 10.852 56.0846 9.188C56.0846 7.524 56.4766 6.036 57.2606 4.724C58.0606 3.396 59.1486 2.364 60.5246 1.628C61.9166 0.876 63.4766 0.5 65.2046 0.5C66.6606 0.5 67.9726 0.756 69.1406 1.268C70.3246 1.78 71.3166 2.516 72.1166 3.476L69.6206 5.78C68.4846 4.468 67.0766 3.812 65.3966 3.812C64.3566 3.812 63.4286 4.044 62.6126 4.508C61.7966 4.956 61.1566 5.588 60.6926 6.404C60.2446 7.22 60.0206 8.148 60.0206 9.188C60.0206 10.228 60.2446 11.156 60.6926 11.972C61.1566 12.788 61.7966 13.428 62.6126 13.892C63.4286 14.34 64.3566 14.564 65.3966 14.564C67.0766 14.564 68.4846 13.9 69.6206 12.572L72.1166 14.876C71.3166 15.852 70.3246 16.596 69.1406 17.108C67.9566 17.62 66.6366 17.876 65.1806 17.876Z" fill="black"/>
<path d="M74.7422 0.787999H78.6302V14.42H87.0542V17.588H74.7422V0.787999Z" fill="black"/>
<path d="M102.235 14.468V17.588H89.2266V0.787999H101.923V3.908H93.0906V7.556H100.891V10.58H93.0906V14.468H102.235Z" fill="black"/>
<path d="M105.328 0.787999H112.96C114.784 0.787999 116.392 1.14 117.784 1.844C119.192 2.532 120.28 3.508 121.048 4.772C121.832 6.036 122.224 7.508 122.224 9.188C122.224 10.868 121.832 12.34 121.048 13.604C120.28 14.868 119.192 15.852 117.784 16.556C116.392 17.244 114.784 17.588 112.96 17.588H105.328V0.787999ZM112.768 14.396C114.448 14.396 115.784 13.932 116.776 13.004C117.784 12.06 118.288 10.788 118.288 9.188C118.288 7.588 117.784 6.324 116.776 5.396C115.784 4.452 114.448 3.98 112.768 3.98H109.216V14.396H112.768Z" fill="black"/>
</svg>
